<?xml version="1.0" encoding="UTF-8" standalone="no"?>
<!DOCTYPE svg PUBLIC "-//W3C//DTD SVG 1.1//EN" "http://www.w3.org/Graphics/SVG/1.1/DTD/svg11.dtd">
<svg width="100%" height="100%" viewBox="0 0 887 178" version="1.1" xmlns="http://www.w3.org/2000/svg" xmlns:xlink="http://www.w3.org/1999/xlink" xml:space="preserve" xmlns:serif="http://www.serif.com/" style="fill-rule:evenodd;clip-rule:evenodd;stroke-linejoin:round;stroke-miterlimit:1.41421;">
    <rect id="Audio_Block" x="0.833" y="0" width="885.827" height="177.165" style="fill:none;"/>
    <g>
        <path d="M324.357,44.236l0,51.984c-2.907,-1.675 -6.258,-2.71 -9.855,-2.71c-10.89,0 -19.71,8.82 -19.71,19.71c0,10.889 8.82,19.709 19.71,19.709c10.889,0 19.71,-8.82 19.71,-19.709l0,-49.274l19.709,0l0,-19.71l-29.564,0Zm-9.855,78.839c-5.42,0 -9.855,-4.435 -9.855,-9.855c0,-5.42 4.435,-9.855 9.855,-9.855c5.42,0 9.855,4.435 9.855,9.855c0,5.42 -4.435,9.855 -9.855,9.855Z" style="fill:#32373c;fill-rule:nonzero;"/>
        <path d="M435.634,92.349l8.067,-22.2l0.133,0l7.933,22.2l-16.133,0Zm4.733,-27.933l-18.533,47.6l6.467,0l5.333,-14.333l20.133,0l5.2,14.333l7,0l-18.6,-47.6l-7,0Z" style="fill:#32373c;fill-rule:nonzero;"/>
        <path d="M498.234,112.016l0,-34.467l-5.667,0l0,19.467c0,1.556 -0.211,2.989 -0.633,4.3c-0.422,1.311 -1.056,2.456 -1.9,3.433c-0.845,0.978 -1.9,1.734 -3.167,2.267c-1.266,0.533 -2.766,0.8 -4.5,0.8c-2.178,0 -3.889,-0.622 -5.133,-1.867c-1.245,-1.244 -1.867,-2.933 -1.867,-5.066l0,-23.334l-5.666,0l0,22.667c0,1.867 0.188,3.567 0.566,5.1c0.378,1.533 1.034,2.856 1.967,3.967c0.933,1.111 2.155,1.966 3.667,2.566c1.511,0.6 3.4,0.9 5.666,0.9c2.534,0 4.734,-0.5 6.6,-1.5c1.867,-1 3.4,-2.566 4.6,-4.7l0.134,0l0,5.467l5.333,0Z" style="fill:#32373c;fill-rule:nonzero;"/>
        <path d="M510.901,95.083c0,-1.689 0.177,-3.334 0.533,-4.934c0.355,-1.6 0.933,-3.022 1.733,-4.266c0.8,-1.245 1.867,-2.245 3.2,-3c1.334,-0.756 2.956,-1.134 4.867,-1.134c1.955,0 3.622,0.367 5,1.1c1.378,0.734 2.5,1.7 3.367,2.9c0.866,1.2 1.5,2.589 1.9,4.167c0.4,1.578 0.6,3.211 0.6,4.9c0,1.6 -0.189,3.178 -0.567,4.733c-0.378,1.556 -0.989,2.945 -1.833,4.167c-0.845,1.222 -1.934,2.211 -3.267,2.967c-1.333,0.755 -2.956,1.133 -4.867,1.133c-1.822,0 -3.411,-0.356 -4.766,-1.067c-1.356,-0.711 -2.467,-1.666 -3.334,-2.866c-0.866,-1.2 -1.511,-2.567 -1.933,-4.1c-0.422,-1.534 -0.633,-3.1 -0.633,-4.7Zm26.666,16.933l0,-47.6l-5.666,0l0,17.733l-0.134,0c-0.622,-1.022 -1.389,-1.877 -2.3,-2.566c-0.911,-0.689 -1.878,-1.245 -2.9,-1.667c-1.022,-0.422 -2.044,-0.722 -3.066,-0.9c-1.023,-0.178 -1.978,-0.267 -2.867,-0.267c-2.622,0 -4.922,0.478 -6.9,1.434c-1.978,0.955 -3.622,2.244 -4.933,3.866c-1.312,1.623 -2.289,3.523 -2.934,5.7c-0.644,2.178 -0.966,4.489 -0.966,6.934c0,2.444 0.333,4.755 1,6.933c0.666,2.178 1.655,4.089 2.966,5.733c1.311,1.645 2.956,2.956 4.934,3.934c1.977,0.977 4.3,1.466 6.966,1.466c2.4,0 4.6,-0.422 6.6,-1.266c2,-0.845 3.467,-2.223 4.4,-4.134l0.134,0l0,4.667l5.666,0Z" style="fill:#32373c;fill-rule:nonzero;"/>
        <path d="M552.301,71.349l0,-6.933l-5.667,0l0,6.933l5.667,0Zm-5.667,6.2l0,34.467l5.667,0l0,-34.467l-5.667,0Z" style="fill:#32373c;fill-rule:nonzero;"/>
        <path d="M565.234,94.816c0,-2.089 0.278,-3.944 0.833,-5.567c0.556,-1.622 1.322,-2.989 2.3,-4.1c0.978,-1.111 2.122,-1.955 3.434,-2.533c1.311,-0.578 2.7,-0.867 4.166,-0.867c1.467,0 2.856,0.289 4.167,0.867c1.311,0.578 2.455,1.422 3.433,2.533c0.978,1.111 1.745,2.478 2.3,4.1c0.556,1.623 0.834,3.478 0.834,5.567c0,2.089 -0.278,3.944 -0.834,5.567c-0.555,1.622 -1.322,2.977 -2.3,4.066c-0.978,1.089 -2.122,1.923 -3.433,2.5c-1.311,0.578 -2.7,0.867 -4.167,0.867c-1.466,0 -2.855,-0.289 -4.166,-0.867c-1.312,-0.577 -2.456,-1.411 -3.434,-2.5c-0.978,-1.089 -1.744,-2.444 -2.3,-4.066c-0.555,-1.623 -0.833,-3.478 -0.833,-5.567Zm-6,0c0,2.533 0.355,4.889 1.067,7.067c0.711,2.177 1.777,4.077 3.2,5.7c1.422,1.622 3.177,2.889 5.266,3.8c2.089,0.911 4.489,1.366 7.2,1.366c2.756,0 5.167,-0.455 7.234,-1.366c2.066,-0.911 3.811,-2.178 5.233,-3.8c1.422,-1.623 2.489,-3.523 3.2,-5.7c0.711,-2.178 1.067,-4.534 1.067,-7.067c0,-2.533 -0.356,-4.9 -1.067,-7.1c-0.711,-2.2 -1.778,-4.111 -3.2,-5.733c-1.422,-1.623 -3.167,-2.9 -5.233,-3.834c-2.067,-0.933 -4.478,-1.4 -7.234,-1.4c-2.711,0 -5.111,0.467 -7.2,1.4c-2.089,0.934 -3.844,2.211 -5.266,3.834c-1.423,1.622 -2.489,3.533 -3.2,5.733c-0.712,2.2 -1.067,4.567 -1.067,7.1Z" style="fill:#32373c;fill-rule:nonzero;"/>
    </g>
</svg>
