<?xml version="1.0" encoding="UTF-8" standalone="no"?>
<!DOCTYPE svg PUBLIC "-//W3C//DTD SVG 1.1//EN" "http://www.w3.org/Graphics/SVG/1.1/DTD/svg11.dtd">
<svg width="100%" height="100%" viewBox="0 0 887 178" version="1.1" xmlns="http://www.w3.org/2000/svg" xmlns:xlink="http://www.w3.org/1999/xlink" xml:space="preserve" xmlns:serif="http://www.serif.com/" style="fill-rule:evenodd;clip-rule:evenodd;stroke-linejoin:round;stroke-miterlimit:1.41421;">
    <rect id="Cover_Block" x="0.833" y="0" width="885.827" height="177.165" style="fill:none;"/>
    <g>
        <path d="M294.127,57.077l27.567,0l0,-7.876l-27.567,0c-4.332,0 -7.877,3.544 -7.877,7.876l0,27.568l7.877,0l0,-27.568Zm23.629,35.444l-15.753,19.691l47.258,0l-11.815,-15.753l-7.994,10.672l-11.696,-14.61Zm27.567,-17.722c0,-3.269 -2.639,-5.907 -5.908,-5.907c-3.268,0 -5.907,2.638 -5.907,5.907c0,3.269 2.639,5.907 5.907,5.907c3.269,0 5.908,-2.638 5.908,-5.907Zm11.814,-25.598l-27.567,0l0,7.876l27.567,0l0,27.568l7.876,0l0,-27.568c0,-4.332 -3.544,-7.876 -7.876,-7.876Zm0,70.887l-27.567,0l0,7.876l27.567,0c4.332,0 7.876,-3.544 7.876,-7.876l0,-27.567l-7.876,0l0,27.567Zm-63.01,-27.567l-7.877,0l0,27.567c0,4.332 3.545,7.876 7.877,7.876l27.567,0l0,-7.876l-27.567,0l0,-27.567Z" style="fill:#32373c;fill-rule:nonzero;"/>
        <path d="M462.176,78.749l6.333,0c-0.356,-2.533 -1.111,-4.766 -2.267,-6.7c-1.155,-1.933 -2.6,-3.544 -4.333,-4.833c-1.733,-1.289 -3.711,-2.267 -5.933,-2.933c-2.223,-0.667 -4.578,-1 -7.067,-1c-3.644,0 -6.878,0.655 -9.7,1.966c-2.822,1.311 -5.178,3.1 -7.067,5.367c-1.889,2.267 -3.322,4.922 -4.3,7.967c-0.977,3.044 -1.466,6.3 -1.466,9.766c0,3.467 0.455,6.711 1.366,9.734c0.911,3.022 2.278,5.644 4.1,7.866c1.823,2.223 4.111,3.967 6.867,5.234c2.756,1.266 5.978,1.9 9.667,1.9c6.089,0 10.889,-1.667 14.4,-5c3.511,-3.334 5.577,-8 6.2,-14l-6.334,0c-0.133,1.955 -0.533,3.777 -1.2,5.466c-0.666,1.689 -1.589,3.145 -2.766,4.367c-1.178,1.222 -2.578,2.178 -4.2,2.867c-1.623,0.689 -3.478,1.033 -5.567,1.033c-2.844,0 -5.289,-0.533 -7.333,-1.6c-2.045,-1.067 -3.723,-2.5 -5.034,-4.3c-1.311,-1.8 -2.277,-3.911 -2.9,-6.333c-0.622,-2.423 -0.933,-4.989 -0.933,-7.7c0,-2.489 0.311,-4.889 0.933,-7.2c0.623,-2.311 1.589,-4.367 2.9,-6.167c1.311,-1.8 2.978,-3.233 5,-4.3c2.023,-1.067 4.456,-1.6 7.3,-1.6c3.334,0 6.211,0.844 8.634,2.533c2.422,1.689 3.989,4.223 4.7,7.6Z" style="fill:#32373c;fill-rule:nonzero;"/>
        <path d="M480.042,94.816c0,-2.089 0.278,-3.944 0.834,-5.567c0.555,-1.622 1.322,-2.989 2.3,-4.1c0.977,-1.111 2.122,-1.955 3.433,-2.533c1.311,-0.578 2.7,-0.867 4.167,-0.867c1.466,0 2.855,0.289 4.166,0.867c1.311,0.578 2.456,1.422 3.434,2.533c0.977,1.111 1.744,2.478 2.3,4.1c0.555,1.623 0.833,3.478 0.833,5.567c0,2.089 -0.278,3.944 -0.833,5.567c-0.556,1.622 -1.323,2.977 -2.3,4.066c-0.978,1.089 -2.123,1.923 -3.434,2.5c-1.311,0.578 -2.7,0.867 -4.166,0.867c-1.467,0 -2.856,-0.289 -4.167,-0.867c-1.311,-0.577 -2.456,-1.411 -3.433,-2.5c-0.978,-1.089 -1.745,-2.444 -2.3,-4.066c-0.556,-1.623 -0.834,-3.478 -0.834,-5.567Zm-6,0c0,2.533 0.356,4.889 1.067,7.067c0.711,2.177 1.778,4.077 3.2,5.7c1.422,1.622 3.178,2.889 5.267,3.8c2.089,0.911 4.489,1.366 7.2,1.366c2.755,0 5.166,-0.455 7.233,-1.366c2.067,-0.911 3.811,-2.178 5.233,-3.8c1.423,-1.623 2.489,-3.523 3.2,-5.7c0.711,-2.178 1.067,-4.534 1.067,-7.067c0,-2.533 -0.356,-4.9 -1.067,-7.1c-0.711,-2.2 -1.777,-4.111 -3.2,-5.733c-1.422,-1.623 -3.166,-2.9 -5.233,-3.834c-2.067,-0.933 -4.478,-1.4 -7.233,-1.4c-2.711,0 -5.111,0.467 -7.2,1.4c-2.089,0.934 -3.845,2.211 -5.267,3.834c-1.422,1.622 -2.489,3.533 -3.2,5.733c-0.711,2.2 -1.067,4.567 -1.067,7.1Z" style="fill:#32373c;fill-rule:nonzero;"/>
        <path d="M529.709,112.016l12.6,-34.467l-5.933,0l-9.4,28.734l-0.134,0l-9.666,-28.734l-6.334,0l12.8,34.467l6.067,0Z" style="fill:#32373c;fill-rule:nonzero;"/>
        <path d="M571.442,91.483l-19.8,0c0.089,-1.334 0.378,-2.589 0.867,-3.767c0.489,-1.178 1.156,-2.211 2,-3.1c0.844,-0.889 1.856,-1.589 3.033,-2.1c1.178,-0.511 2.5,-0.767 3.967,-0.767c1.422,0 2.722,0.256 3.9,0.767c1.178,0.511 2.2,1.2 3.067,2.067c0.866,0.866 1.555,1.9 2.066,3.1c0.511,1.2 0.811,2.466 0.9,3.8Zm5.467,9.6l-5.6,0c-0.489,2.266 -1.5,3.955 -3.033,5.066c-1.534,1.111 -3.5,1.667 -5.9,1.667c-1.867,0 -3.489,-0.311 -4.867,-0.933c-1.378,-0.623 -2.511,-1.456 -3.4,-2.5c-0.889,-1.045 -1.533,-2.245 -1.933,-3.6c-0.4,-1.356 -0.578,-2.789 -0.534,-4.3l25.8,0c0.089,-2.089 -0.1,-4.289 -0.566,-6.6c-0.467,-2.311 -1.311,-4.445 -2.534,-6.4c-1.222,-1.956 -2.844,-3.567 -4.866,-4.834c-2.023,-1.266 -4.567,-1.9 -7.634,-1.9c-2.355,0 -4.522,0.445 -6.5,1.334c-1.977,0.889 -3.689,2.133 -5.133,3.733c-1.444,1.6 -2.567,3.489 -3.367,5.667c-0.8,2.177 -1.2,4.577 -1.2,7.2c0.089,2.622 0.478,5.044 1.167,7.266c0.689,2.223 1.722,4.134 3.1,5.734c1.378,1.6 3.078,2.844 5.1,3.733c2.022,0.889 4.411,1.333 7.167,1.333c3.911,0 7.155,-0.977 9.733,-2.933c2.578,-1.956 4.244,-4.867 5,-8.733Z" style="fill:#32373c;fill-rule:nonzero;"/>
        <path d="M583.109,77.549l0,34.467l5.667,0l0,-15.333c0,-2.223 0.222,-4.189 0.666,-5.9c0.445,-1.711 1.156,-3.167 2.134,-4.367c0.977,-1.2 2.266,-2.111 3.866,-2.733c1.6,-0.623 3.534,-0.934 5.8,-0.934l0,-6c-3.066,-0.089 -5.6,0.534 -7.6,1.867c-2,1.333 -3.689,3.4 -5.066,6.2l-0.134,0l0,-7.267l-5.333,0Z" style="fill:#32373c;fill-rule:nonzero;"/>
    </g>
</svg>
