<?xml version="1.0" encoding="UTF-8" standalone="no"?>
<!DOCTYPE svg PUBLIC "-//W3C//DTD SVG 1.1//EN" "http://www.w3.org/Graphics/SVG/1.1/DTD/svg11.dtd">
<svg width="100%" height="100%" viewBox="0 0 887 178" version="1.1" xmlns="http://www.w3.org/2000/svg" xmlns:xlink="http://www.w3.org/1999/xlink" xml:space="preserve" xmlns:serif="http://www.serif.com/" style="fill-rule:evenodd;clip-rule:evenodd;stroke-linejoin:round;stroke-miterlimit:1.41421;">
    <rect id="File_Block" x="0.833" y="0" width="885.827" height="177.165" style="fill:none;"/>
    <g>
        <path d="M352.678,63.935l8.216,8.216l36.272,0l0,41.079l-65.726,0l0,-49.295l21.238,0m3.409,-8.215l-24.647,0c-4.518,0 -8.174,3.697 -8.174,8.215l-0.042,49.295c0,4.519 3.698,8.216 8.216,8.216l65.726,0c4.519,0 8.216,-3.697 8.216,-8.216l0,-41.079c0,-4.519 -3.697,-8.216 -8.216,-8.216l-32.863,0l-8.216,-8.215Z" style="fill:#32373c;fill-rule:nonzero;"/>
        <path d="M467.38,65.416l0,47.6l6.334,0l0,-21.8l21.866,0l0,-5.333l-21.866,0l0,-15.134l24.933,0l0,-5.333l-31.267,0Z" style="fill:#32373c;fill-rule:nonzero;"/>
        <path d="M510.714,72.349l0,-6.933l-5.667,0l0,6.933l5.667,0Zm-5.667,6.2l0,34.467l5.667,0l0,-34.467l-5.667,0Z" style="fill:#32373c;fill-rule:nonzero;"/>
        <rect x="519.847" y="65.416" width="5.667" height="47.6" style="fill:#32373c;fill-rule:nonzero;"/>
        <path d="M558.247,92.483l-19.8,0c0.089,-1.334 0.378,-2.589 0.867,-3.767c0.489,-1.178 1.155,-2.211 2,-3.1c0.844,-0.889 1.855,-1.589 3.033,-2.1c1.178,-0.511 2.5,-0.767 3.967,-0.767c1.422,0 2.722,0.256 3.9,0.767c1.177,0.511 2.2,1.2 3.066,2.067c0.867,0.866 1.556,1.9 2.067,3.1c0.511,1.2 0.811,2.466 0.9,3.8Zm5.467,9.6l-5.6,0c-0.489,2.266 -1.5,3.955 -3.034,5.066c-1.533,1.111 -3.5,1.667 -5.9,1.667c-1.866,0 -3.489,-0.311 -4.866,-0.933c-1.378,-0.623 -2.511,-1.456 -3.4,-2.5c-0.889,-1.045 -1.534,-2.245 -1.934,-3.6c-0.4,-1.356 -0.577,-2.789 -0.533,-4.3l25.8,0c0.089,-2.089 -0.1,-4.289 -0.567,-6.6c-0.466,-2.311 -1.311,-4.445 -2.533,-6.4c-1.222,-1.956 -2.844,-3.567 -4.867,-4.834c-2.022,-1.266 -4.566,-1.9 -7.633,-1.9c-2.356,0 -4.522,0.445 -6.5,1.334c-1.978,0.889 -3.689,2.133 -5.133,3.733c-1.445,1.6 -2.567,3.489 -3.367,5.667c-0.8,2.177 -1.2,4.577 -1.2,7.2c0.089,2.622 0.478,5.044 1.167,7.266c0.689,2.223 1.722,4.134 3.1,5.734c1.377,1.6 3.077,2.844 5.1,3.733c2.022,0.889 4.411,1.333 7.166,1.333c3.911,0 7.156,-0.977 9.734,-2.933c2.577,-1.956 4.244,-4.867 5,-8.733Z" style="fill:#32373c;fill-rule:nonzero;"/>
    </g>
</svg>
