<?xml version="1.0" encoding="UTF-8" standalone="no"?>
<!DOCTYPE svg PUBLIC "-//W3C//DTD SVG 1.1//EN" "http://www.w3.org/Graphics/SVG/1.1/DTD/svg11.dtd">
<svg width="100%" height="100%" viewBox="0 0 887 178" version="1.1" xmlns="http://www.w3.org/2000/svg" xmlns:xlink="http://www.w3.org/1999/xlink" xml:space="preserve" xmlns:serif="http://www.serif.com/" style="fill-rule:evenodd;clip-rule:evenodd;stroke-linejoin:round;stroke-miterlimit:1.41421;">
    <rect id="Heading_Block" x="0.833" y="0" width="885.827" height="177.165" style="fill:none;"/>
    <g>
        <path d="M254.654,50.619l0,15.185l27.84,0l0,60.743l15.186,0l0,-60.743l27.84,0l0,-15.185l-70.866,0Z" style="fill:#32373c;fill-rule:nonzero;"/>
        <path d="M392.905,58.816l0,47.6l6.334,0l0,-21.8l25.066,0l0,21.8l6.334,0l0,-47.6l-6.334,0l0,20.467l-25.066,0l0,-20.467l-6.334,0Z" style="fill:#32373c;fill-rule:nonzero;"/>
        <path d="M464.039,85.883l-19.8,0c0.088,-1.334 0.377,-2.589 0.866,-3.767c0.489,-1.178 1.156,-2.211 2,-3.1c0.845,-0.889 1.856,-1.589 3.034,-2.1c1.177,-0.511 2.5,-0.767 3.966,-0.767c1.422,0 2.722,0.256 3.9,0.767c1.178,0.511 2.2,1.2 3.067,2.067c0.867,0.866 1.555,1.9 2.067,3.1c0.511,1.2 0.811,2.466 0.9,3.8Zm5.466,9.6l-5.6,0c-0.489,2.266 -1.5,3.955 -3.033,5.066c-1.533,1.111 -3.5,1.667 -5.9,1.667c-1.867,0 -3.489,-0.311 -4.867,-0.933c-1.378,-0.623 -2.511,-1.456 -3.4,-2.5c-0.889,-1.045 -1.533,-2.245 -1.933,-3.6c-0.4,-1.356 -0.578,-2.789 -0.533,-4.3l25.8,0c0.088,-2.089 -0.1,-4.289 -0.567,-6.6c-0.467,-2.311 -1.311,-4.445 -2.533,-6.4c-1.223,-1.956 -2.845,-3.567 -4.867,-4.834c-2.022,-1.266 -4.567,-1.9 -7.633,-1.9c-2.356,0 -4.523,0.445 -6.5,1.334c-1.978,0.889 -3.689,2.133 -5.134,3.733c-1.444,1.6 -2.566,3.489 -3.366,5.667c-0.8,2.177 -1.2,4.577 -1.2,7.2c0.088,2.622 0.477,5.044 1.166,7.266c0.689,2.223 1.722,4.134 3.1,5.734c1.378,1.6 3.078,2.844 5.1,3.733c2.022,0.889 4.411,1.333 7.167,1.333c3.911,0 7.155,-0.977 9.733,-2.933c2.578,-1.956 4.245,-4.867 5,-8.733Z" style="fill:#32373c;fill-rule:nonzero;"/>
        <path d="M506.439,106.283c-0.978,0.577 -2.334,0.866 -4.067,0.866c-1.467,0 -2.633,-0.411 -3.5,-1.233c-0.867,-0.822 -1.3,-2.167 -1.3,-4.033c-1.556,1.866 -3.367,3.211 -5.433,4.033c-2.067,0.822 -4.3,1.233 -6.7,1.233c-1.556,0 -3.034,-0.177 -4.434,-0.533c-1.4,-0.356 -2.611,-0.911 -3.633,-1.667c-1.022,-0.755 -1.833,-1.744 -2.433,-2.966c-0.6,-1.223 -0.9,-2.7 -0.9,-4.434c0,-1.955 0.333,-3.555 1,-4.8c0.666,-1.244 1.544,-2.255 2.633,-3.033c1.089,-0.778 2.333,-1.367 3.733,-1.767c1.4,-0.4 2.834,-0.733 4.3,-1c1.556,-0.311 3.034,-0.544 4.434,-0.7c1.4,-0.155 2.633,-0.377 3.7,-0.666c1.066,-0.289 1.911,-0.711 2.533,-1.267c0.622,-0.556 0.933,-1.367 0.933,-2.433c0,-1.245 -0.233,-2.245 -0.7,-3c-0.466,-0.756 -1.066,-1.334 -1.8,-1.734c-0.733,-0.4 -1.555,-0.666 -2.466,-0.8c-0.912,-0.133 -1.812,-0.2 -2.7,-0.2c-2.4,0 -4.4,0.456 -6,1.367c-1.6,0.911 -2.467,2.633 -2.6,5.167l-5.667,0c0.089,-2.134 0.533,-3.934 1.333,-5.4c0.8,-1.467 1.867,-2.656 3.2,-3.567c1.334,-0.911 2.856,-1.567 4.567,-1.967c1.711,-0.4 3.544,-0.6 5.5,-0.6c1.555,0 3.1,0.111 4.633,0.334c1.534,0.222 2.922,0.677 4.167,1.366c1.244,0.689 2.244,1.656 3,2.9c0.755,1.245 1.133,2.867 1.133,4.867l0,17.733c0,1.334 0.078,2.311 0.234,2.934c0.155,0.622 0.677,0.933 1.566,0.933c0.489,0 1.067,-0.111 1.734,-0.333l0,4.4Zm-9.2,-17.667c-0.712,0.533 -1.645,0.922 -2.8,1.167c-1.156,0.244 -2.367,0.444 -3.634,0.6c-1.266,0.155 -2.544,0.333 -3.833,0.533c-1.289,0.2 -2.445,0.522 -3.467,0.967c-1.022,0.444 -1.855,1.077 -2.5,1.9c-0.644,0.822 -0.966,1.944 -0.966,3.366c0,0.934 0.188,1.723 0.566,2.367c0.378,0.644 0.867,1.167 1.467,1.567c0.6,0.4 1.3,0.689 2.1,0.866c0.8,0.178 1.644,0.267 2.533,0.267c1.867,0 3.467,-0.256 4.8,-0.767c1.334,-0.511 2.422,-1.155 3.267,-1.933c0.844,-0.778 1.467,-1.622 1.867,-2.533c0.4,-0.911 0.6,-1.767 0.6,-2.567l0,-5.8Z" style="fill:#32373c;fill-rule:nonzero;"/>
        <path d="M515.839,89.483c0,-1.689 0.177,-3.334 0.533,-4.934c0.355,-1.6 0.933,-3.022 1.733,-4.266c0.8,-1.245 1.867,-2.245 3.2,-3c1.334,-0.756 2.956,-1.134 4.867,-1.134c1.955,0 3.622,0.367 5,1.1c1.378,0.734 2.5,1.7 3.367,2.9c0.866,1.2 1.5,2.589 1.9,4.167c0.4,1.578 0.6,3.211 0.6,4.9c0,1.6 -0.189,3.178 -0.567,4.733c-0.378,1.556 -0.989,2.945 -1.833,4.167c-0.845,1.222 -1.934,2.211 -3.267,2.967c-1.333,0.755 -2.956,1.133 -4.867,1.133c-1.822,0 -3.411,-0.356 -4.766,-1.067c-1.356,-0.711 -2.467,-1.666 -3.334,-2.866c-0.866,-1.2 -1.511,-2.567 -1.933,-4.1c-0.422,-1.534 -0.633,-3.1 -0.633,-4.7Zm26.666,16.933l0,-47.6l-5.666,0l0,17.733l-0.134,0c-0.622,-1.022 -1.389,-1.877 -2.3,-2.566c-0.911,-0.689 -1.878,-1.245 -2.9,-1.667c-1.022,-0.422 -2.044,-0.722 -3.066,-0.9c-1.023,-0.178 -1.978,-0.267 -2.867,-0.267c-2.622,0 -4.922,0.478 -6.9,1.434c-1.978,0.955 -3.622,2.244 -4.933,3.866c-1.312,1.623 -2.289,3.523 -2.934,5.7c-0.644,2.178 -0.966,4.489 -0.966,6.934c0,2.444 0.333,4.755 1,6.933c0.666,2.178 1.655,4.089 2.966,5.733c1.311,1.645 2.956,2.956 4.934,3.934c1.977,0.977 4.3,1.466 6.966,1.466c2.4,0 4.6,-0.422 6.6,-1.266c2,-0.845 3.467,-2.223 4.4,-4.134l0.134,0l0,4.667l5.666,0Z" style="fill:#32373c;fill-rule:nonzero;"/>
        <path d="M557.239,65.749l0,-6.933l-5.667,0l0,6.933l5.667,0Zm-5.667,6.2l0,34.467l5.667,0l0,-34.467l-5.667,0Z" style="fill:#32373c;fill-rule:nonzero;"/>
        <path d="M566.039,71.949l0,34.467l5.666,0l0,-19.467c0,-1.555 0.211,-2.989 0.634,-4.3c0.422,-1.311 1.055,-2.455 1.9,-3.433c0.844,-0.978 1.9,-1.733 3.166,-2.267c1.267,-0.533 2.767,-0.8 4.5,-0.8c2.178,0 3.889,0.623 5.134,1.867c1.244,1.244 1.866,2.933 1.866,5.067l0,23.333l5.667,0l0,-22.667c0,-1.866 -0.189,-3.566 -0.567,-5.1c-0.378,-1.533 -1.033,-2.855 -1.966,-3.966c-0.934,-1.111 -2.156,-1.978 -3.667,-2.6c-1.511,-0.623 -3.4,-0.934 -5.667,-0.934c-5.111,0 -8.844,2.089 -11.2,6.267l-0.133,0l0,-5.467l-5.333,0Z" style="fill:#32373c;fill-rule:nonzero;"/>
        <path d="M632.839,103.483l0,-31.534l-5.334,0l0,4.934l-0.066,0c-1.023,-1.911 -2.445,-3.345 -4.267,-4.3c-1.822,-0.956 -3.822,-1.434 -6,-1.434c-2.978,0 -5.489,0.567 -7.533,1.7c-2.045,1.134 -3.689,2.578 -4.934,4.334c-1.244,1.755 -2.133,3.711 -2.666,5.866c-0.534,2.156 -0.8,4.256 -0.8,6.3c0,2.356 0.322,4.589 0.966,6.7c0.645,2.111 1.611,3.956 2.9,5.534c1.289,1.577 2.889,2.833 4.8,3.766c1.911,0.934 4.156,1.4 6.734,1.4c2.222,0 4.322,-0.5 6.3,-1.5c1.977,-1 3.455,-2.566 4.433,-4.7l0.133,0l0,2.267c0,1.911 -0.189,3.667 -0.566,5.267c-0.378,1.6 -0.989,2.966 -1.834,4.1c-0.844,1.133 -1.911,2.022 -3.2,2.666c-1.289,0.645 -2.866,0.967 -4.733,0.967c-0.933,0 -1.911,-0.1 -2.933,-0.3c-1.023,-0.2 -1.967,-0.522 -2.834,-0.967c-0.866,-0.444 -1.6,-1.022 -2.2,-1.733c-0.6,-0.711 -0.922,-1.578 -0.966,-2.6l-5.667,0c0.089,1.867 0.578,3.444 1.467,4.733c0.888,1.289 2.011,2.334 3.366,3.134c1.356,0.8 2.867,1.377 4.534,1.733c1.666,0.356 3.3,0.533 4.9,0.533c5.511,0 9.555,-1.4 12.133,-4.2c2.578,-2.8 3.867,-7.022 3.867,-12.666Zm-15.867,-1.667c-1.867,0 -3.422,-0.389 -4.667,-1.167c-1.244,-0.777 -2.244,-1.8 -3,-3.066c-0.755,-1.267 -1.289,-2.678 -1.6,-4.234c-0.311,-1.555 -0.466,-3.111 -0.466,-4.666c0,-1.645 0.188,-3.223 0.566,-4.734c0.378,-1.511 0.978,-2.844 1.8,-4c0.822,-1.155 1.878,-2.077 3.167,-2.766c1.289,-0.689 2.844,-1.034 4.667,-1.034c1.777,0 3.288,0.356 4.533,1.067c1.244,0.711 2.255,1.656 3.033,2.833c0.778,1.178 1.345,2.5 1.7,3.967c0.356,1.467 0.534,2.956 0.534,4.467c0,1.6 -0.189,3.2 -0.567,4.8c-0.378,1.6 -0.967,3.033 -1.767,4.3c-0.8,1.266 -1.855,2.289 -3.166,3.066c-1.312,0.778 -2.9,1.167 -4.767,1.167Z" style="fill:#32373c;fill-rule:nonzero;"/>
    </g>
</svg>
