<?xml version="1.0" encoding="UTF-8" standalone="no"?>
<!DOCTYPE svg PUBLIC "-//W3C//DTD SVG 1.1//EN" "http://www.w3.org/Graphics/SVG/1.1/DTD/svg11.dtd">
<svg width="100%" height="100%" viewBox="0 0 887 178" version="1.1" xmlns="http://www.w3.org/2000/svg" xmlns:xlink="http://www.w3.org/1999/xlink" xml:space="preserve" xmlns:serif="http://www.serif.com/" style="fill-rule:evenodd;clip-rule:evenodd;stroke-linejoin:round;stroke-miterlimit:1.41421;">
    <rect id="Image_Block" x="0.833" y="0" width="885.827" height="177.165" style="fill:none;"/>
    <g>
        <path d="M353.653,48.239l-62.756,0c-4.931,0 -8.965,4.035 -8.965,8.966l0,62.756c0,4.931 4.034,8.965 8.965,8.965l62.756,0c4.931,0 8.965,-4.034 8.965,-8.965l0,-62.756c0,-4.931 -4.034,-8.966 -8.965,-8.966Zm0,71.722l-62.756,0l0,-62.756l62.756,0l0,62.756Zm-22.592,-30.078l-12.327,15.868l-8.786,-10.579l-12.327,15.824l49.308,0l-15.868,-21.113Z" style="fill:#32373c;fill-rule:nonzero;"/>
        <rect x="428.606" y="61.816" width="6.333" height="47.6" style="fill:#32373c;fill-rule:nonzero;"/>
        <path d="M444.673,74.949l0,34.467l5.667,0l0,-21.467c0,-0.666 0.166,-1.5 0.5,-2.5c0.333,-1 0.866,-1.966 1.6,-2.9c0.733,-0.933 1.689,-1.733 2.866,-2.4c1.178,-0.666 2.589,-1 4.234,-1c1.289,0 2.344,0.189 3.166,0.567c0.823,0.378 1.478,0.911 1.967,1.6c0.489,0.689 0.833,1.5 1.033,2.433c0.2,0.934 0.3,1.956 0.3,3.067l0,22.6l5.667,0l0,-21.467c0,-2.666 0.8,-4.8 2.4,-6.4c1.6,-1.6 3.8,-2.4 6.6,-2.4c1.378,0 2.5,0.2 3.367,0.6c0.866,0.4 1.544,0.945 2.033,1.634c0.489,0.689 0.822,1.5 1,2.433c0.178,0.933 0.267,1.933 0.267,3l0,22.6l5.666,0l0,-25.267c0,-1.777 -0.277,-3.3 -0.833,-4.566c-0.555,-1.267 -1.333,-2.3 -2.333,-3.1c-1,-0.8 -2.2,-1.389 -3.6,-1.767c-1.4,-0.378 -2.967,-0.567 -4.7,-0.567c-2.267,0 -4.345,0.511 -6.234,1.534c-1.888,1.022 -3.411,2.466 -4.566,4.333c-0.711,-2.133 -1.934,-3.644 -3.667,-4.533c-1.733,-0.889 -3.667,-1.334 -5.8,-1.334c-4.844,0 -8.555,1.956 -11.133,5.867l-0.134,0l0,-5.067l-5.333,0Z" style="fill:#32373c;fill-rule:nonzero;"/>
        <path d="M532.073,109.283c-0.978,0.577 -2.333,0.866 -4.067,0.866c-1.466,0 -2.633,-0.411 -3.5,-1.233c-0.866,-0.822 -1.3,-2.167 -1.3,-4.033c-1.555,1.866 -3.366,3.211 -5.433,4.033c-2.067,0.822 -4.3,1.233 -6.7,1.233c-1.555,0 -3.033,-0.177 -4.433,-0.533c-1.4,-0.356 -2.611,-0.911 -3.634,-1.667c-1.022,-0.755 -1.833,-1.744 -2.433,-2.966c-0.6,-1.223 -0.9,-2.7 -0.9,-4.434c0,-1.955 0.333,-3.555 1,-4.8c0.667,-1.244 1.545,-2.255 2.633,-3.033c1.089,-0.778 2.334,-1.367 3.734,-1.767c1.4,-0.4 2.833,-0.733 4.3,-1c1.555,-0.311 3.033,-0.544 4.433,-0.7c1.4,-0.155 2.633,-0.377 3.7,-0.666c1.067,-0.289 1.911,-0.711 2.533,-1.267c0.623,-0.556 0.934,-1.367 0.934,-2.433c0,-1.245 -0.234,-2.245 -0.7,-3c-0.467,-0.756 -1.067,-1.334 -1.8,-1.734c-0.734,-0.4 -1.556,-0.666 -2.467,-0.8c-0.911,-0.133 -1.811,-0.2 -2.7,-0.2c-2.4,0 -4.4,0.456 -6,1.367c-1.6,0.911 -2.467,2.633 -2.6,5.167l-5.667,0c0.089,-2.134 0.534,-3.934 1.334,-5.4c0.8,-1.467 1.866,-2.656 3.2,-3.567c1.333,-0.911 2.855,-1.567 4.566,-1.967c1.712,-0.4 3.545,-0.6 5.5,-0.6c1.556,0 3.1,0.111 4.634,0.334c1.533,0.222 2.922,0.677 4.166,1.366c1.245,0.689 2.245,1.656 3,2.9c0.756,1.245 1.134,2.867 1.134,4.867l0,17.733c0,1.334 0.078,2.311 0.233,2.934c0.156,0.622 0.678,0.933 1.567,0.933c0.489,0 1.066,-0.111 1.733,-0.333l0,4.4Zm-9.2,-17.667c-0.711,0.533 -1.644,0.922 -2.8,1.167c-1.155,0.244 -2.367,0.444 -3.633,0.6c-1.267,0.155 -2.545,0.333 -3.834,0.533c-1.288,0.2 -2.444,0.522 -3.466,0.967c-1.022,0.444 -1.856,1.077 -2.5,1.9c-0.645,0.822 -0.967,1.944 -0.967,3.366c0,0.934 0.189,1.723 0.567,2.367c0.378,0.644 0.866,1.167 1.466,1.567c0.6,0.4 1.3,0.689 2.1,0.866c0.8,0.178 1.645,0.267 2.534,0.267c1.866,0 3.466,-0.256 4.8,-0.767c1.333,-0.511 2.422,-1.155 3.266,-1.933c0.845,-0.778 1.467,-1.622 1.867,-2.533c0.4,-0.911 0.6,-1.767 0.6,-2.567l0,-5.8Z" style="fill:#32373c;fill-rule:nonzero;"/>
        <path d="M567.073,106.483l0,-31.534l-5.333,0l0,4.934l-0.067,0c-1.022,-1.911 -2.444,-3.345 -4.267,-4.3c-1.822,-0.956 -3.822,-1.434 -6,-1.434c-2.977,0 -5.488,0.567 -7.533,1.7c-2.044,1.134 -3.689,2.578 -4.933,4.334c-1.245,1.755 -2.134,3.711 -2.667,5.866c-0.533,2.156 -0.8,4.256 -0.8,6.3c0,2.356 0.322,4.589 0.967,6.7c0.644,2.111 1.611,3.956 2.9,5.534c1.289,1.577 2.889,2.833 4.8,3.766c1.911,0.934 4.155,1.4 6.733,1.4c2.222,0 4.322,-0.5 6.3,-1.5c1.978,-1 3.456,-2.566 4.433,-4.7l0.134,0l0,2.267c0,1.911 -0.189,3.667 -0.567,5.267c-0.378,1.6 -0.989,2.966 -1.833,4.1c-0.845,1.133 -1.911,2.022 -3.2,2.666c-1.289,0.645 -2.867,0.967 -4.734,0.967c-0.933,0 -1.911,-0.1 -2.933,-0.3c-1.022,-0.2 -1.967,-0.522 -2.833,-0.967c-0.867,-0.444 -1.6,-1.022 -2.2,-1.733c-0.6,-0.711 -0.922,-1.578 -0.967,-2.6l-5.667,0c0.089,1.867 0.578,3.444 1.467,4.733c0.889,1.289 2.011,2.334 3.367,3.134c1.355,0.8 2.866,1.377 4.533,1.733c1.667,0.356 3.3,0.533 4.9,0.533c5.511,0 9.556,-1.4 12.133,-4.2c2.578,-2.8 3.867,-7.022 3.867,-12.666Zm-15.867,-1.667c-1.866,0 -3.422,-0.389 -4.666,-1.167c-1.245,-0.777 -2.245,-1.8 -3,-3.066c-0.756,-1.267 -1.289,-2.678 -1.6,-4.234c-0.311,-1.555 -0.467,-3.111 -0.467,-4.666c0,-1.645 0.189,-3.223 0.567,-4.734c0.378,-1.511 0.978,-2.844 1.8,-4c0.822,-1.155 1.878,-2.077 3.166,-2.766c1.289,-0.689 2.845,-1.034 4.667,-1.034c1.778,0 3.289,0.356 4.533,1.067c1.245,0.711 2.256,1.656 3.034,2.833c0.778,1.178 1.344,2.5 1.7,3.967c0.355,1.467 0.533,2.956 0.533,4.467c0,1.6 -0.189,3.2 -0.567,4.8c-0.377,1.6 -0.966,3.033 -1.766,4.3c-0.8,1.266 -1.856,2.289 -3.167,3.066c-1.311,0.778 -2.9,1.167 -4.767,1.167Z" style="fill:#32373c;fill-rule:nonzero;"/>
        <path d="M599.54,88.883l-19.8,0c0.089,-1.334 0.378,-2.589 0.866,-3.767c0.489,-1.178 1.156,-2.211 2,-3.1c0.845,-0.889 1.856,-1.589 3.034,-2.1c1.178,-0.511 2.5,-0.767 3.966,-0.767c1.423,0 2.723,0.256 3.9,0.767c1.178,0.511 2.2,1.2 3.067,2.067c0.867,0.866 1.556,1.9 2.067,3.1c0.511,1.2 0.811,2.466 0.9,3.8Zm5.466,9.6l-5.6,0c-0.488,2.266 -1.5,3.955 -3.033,5.066c-1.533,1.111 -3.5,1.667 -5.9,1.667c-1.867,0 -3.489,-0.311 -4.867,-0.933c-1.377,-0.623 -2.511,-1.456 -3.4,-2.5c-0.888,-1.045 -1.533,-2.245 -1.933,-3.6c-0.4,-1.356 -0.578,-2.789 -0.533,-4.3l25.8,0c0.089,-2.089 -0.1,-4.289 -0.567,-6.6c-0.467,-2.311 -1.311,-4.445 -2.533,-6.4c-1.222,-1.956 -2.845,-3.567 -4.867,-4.834c-2.022,-1.266 -4.567,-1.9 -7.633,-1.9c-2.356,0 -4.522,0.445 -6.5,1.334c-1.978,0.889 -3.689,2.133 -5.134,3.733c-1.444,1.6 -2.566,3.489 -3.366,5.667c-0.8,2.177 -1.2,4.577 -1.2,7.2c0.089,2.622 0.478,5.044 1.166,7.266c0.689,2.223 1.723,4.134 3.1,5.734c1.378,1.6 3.078,2.844 5.1,3.733c2.023,0.889 4.412,1.333 7.167,1.333c3.911,0 7.156,-0.977 9.733,-2.933c2.578,-1.956 4.245,-4.867 5,-8.733Z" style="fill:#32373c;fill-rule:nonzero;"/>
    </g>
</svg>
