<?xml version="1.0" encoding="UTF-8" standalone="no"?>
<!DOCTYPE svg PUBLIC "-//W3C//DTD SVG 1.1//EN" "http://www.w3.org/Graphics/SVG/1.1/DTD/svg11.dtd">
<svg width="100%" height="100%" viewBox="0 0 887 178" version="1.1" xmlns="http://www.w3.org/2000/svg" xmlns:xlink="http://www.w3.org/1999/xlink" xml:space="preserve" xmlns:serif="http://www.serif.com/" style="fill-rule:evenodd;clip-rule:evenodd;stroke-linejoin:round;stroke-miterlimit:1.41421;">
    <rect id="List_Block" x="0.833" y="0" width="885.827" height="177.165" style="fill:none;"/>
    <g>
        <path d="M329.493,82.24c-3.51,0 -6.343,2.833 -6.343,6.343c0,3.51 2.833,6.343 6.343,6.343c3.51,0 6.343,-2.833 6.343,-6.343c0,-3.51 -2.833,-6.343 -6.343,-6.343Zm0,-25.373c-3.51,0 -6.343,2.833 -6.343,6.343c0,3.51 2.833,6.343 6.343,6.343c3.51,0 6.343,-2.833 6.343,-6.343c0,-3.51 -2.833,-6.343 -6.343,-6.343Zm0,50.745c-3.51,0 -6.343,2.876 -6.343,6.343c0,3.468 2.875,6.343 6.343,6.343c3.468,0 6.343,-2.875 6.343,-6.343c0,-3.467 -2.833,-6.343 -6.343,-6.343Zm12.686,10.572l59.202,0l0,-8.458l-59.202,0l0,8.458Zm0,-25.373l59.202,0l0,-8.457l-59.202,0l0,8.457Zm0,-33.829l0,8.457l59.202,0l0,-8.457l-59.202,0Z" style="fill:#32373c;fill-rule:nonzero;"/>
        <path d="M465.343,64.416l0,47.6l31.533,0l0,-5.333l-25.2,0l0,-42.267l-6.333,0Z" style="fill:#32373c;fill-rule:nonzero;"/>
        <path d="M507.476,71.349l0,-6.933l-5.666,0l0,6.933l5.666,0Zm-5.666,6.2l0,34.467l5.666,0l0,-34.467l-5.666,0Z" style="fill:#32373c;fill-rule:nonzero;"/>
        <path d="M519.743,101.149l-5.667,0c0.089,2.134 0.534,3.945 1.334,5.434c0.8,1.489 1.866,2.689 3.2,3.6c1.333,0.911 2.866,1.566 4.6,1.966c1.733,0.4 3.555,0.6 5.466,0.6c1.734,0 3.478,-0.166 5.234,-0.5c1.755,-0.333 3.333,-0.922 4.733,-1.766c1.4,-0.845 2.533,-1.956 3.4,-3.334c0.867,-1.377 1.3,-3.111 1.3,-5.2c0,-1.644 -0.322,-3.022 -0.967,-4.133c-0.644,-1.111 -1.489,-2.033 -2.533,-2.767c-1.045,-0.733 -2.245,-1.322 -3.6,-1.766c-1.356,-0.445 -2.745,-0.823 -4.167,-1.134c-1.333,-0.311 -2.666,-0.611 -4,-0.9c-1.333,-0.289 -2.533,-0.644 -3.6,-1.066c-1.066,-0.423 -1.944,-0.956 -2.633,-1.6c-0.689,-0.645 -1.033,-1.456 -1.033,-2.434c0,-0.889 0.222,-1.611 0.666,-2.166c0.445,-0.556 1.022,-1 1.734,-1.334c0.711,-0.333 1.5,-0.566 2.366,-0.7c0.867,-0.133 1.722,-0.2 2.567,-0.2c0.933,0 1.855,0.1 2.767,0.3c0.911,0.2 1.744,0.523 2.5,0.967c0.755,0.444 1.377,1.033 1.866,1.767c0.489,0.733 0.778,1.655 0.867,2.766l5.667,0c-0.134,-2.089 -0.578,-3.833 -1.334,-5.233c-0.755,-1.4 -1.766,-2.511 -3.033,-3.333c-1.267,-0.823 -2.722,-1.4 -4.367,-1.734c-1.644,-0.333 -3.444,-0.5 -5.4,-0.5c-1.511,0 -3.033,0.189 -4.566,0.567c-1.534,0.378 -2.912,0.956 -4.134,1.733c-1.222,0.778 -2.222,1.789 -3,3.034c-0.778,1.244 -1.166,2.733 -1.166,4.466c0,2.223 0.555,3.956 1.666,5.2c1.111,1.245 2.5,2.211 4.167,2.9c1.667,0.689 3.478,1.223 5.433,1.6c1.956,0.378 3.767,0.8 5.434,1.267c1.666,0.467 3.055,1.078 4.166,1.833c1.111,0.756 1.667,1.867 1.667,3.334c0,1.066 -0.267,1.944 -0.8,2.633c-0.533,0.689 -1.211,1.211 -2.033,1.567c-0.823,0.355 -1.723,0.6 -2.7,0.733c-0.978,0.133 -1.912,0.2 -2.8,0.2c-1.156,0 -2.278,-0.111 -3.367,-0.333c-1.089,-0.223 -2.067,-0.589 -2.933,-1.1c-0.867,-0.511 -1.567,-1.2 -2.1,-2.067c-0.534,-0.867 -0.823,-1.922 -0.867,-3.167Z" style="fill:#32373c;fill-rule:nonzero;"/>
        <path d="M557.476,77.549l0,-10.333l-5.666,0l0,10.333l-5.867,0l0,5l5.867,0l0,21.934c0,1.6 0.155,2.889 0.466,3.866c0.311,0.978 0.789,1.734 1.434,2.267c0.644,0.533 1.488,0.9 2.533,1.1c1.044,0.2 2.3,0.3 3.767,0.3l4.333,0l0,-5l-2.6,0c-0.889,0 -1.611,-0.033 -2.167,-0.1c-0.555,-0.067 -0.989,-0.211 -1.3,-0.433c-0.311,-0.223 -0.522,-0.534 -0.633,-0.934c-0.111,-0.4 -0.167,-0.933 -0.167,-1.6l0,-21.4l6.867,0l0,-5l-6.867,0Z" style="fill:#32373c;fill-rule:nonzero;"/>
    </g>
</svg>
