<?xml version="1.0" encoding="UTF-8" standalone="no"?>
<!DOCTYPE svg PUBLIC "-//W3C//DTD SVG 1.1//EN" "http://www.w3.org/Graphics/SVG/1.1/DTD/svg11.dtd">
<svg width="100%" height="100%" viewBox="0 0 887 178" version="1.1" xmlns="http://www.w3.org/2000/svg" xmlns:xlink="http://www.w3.org/1999/xlink" xml:space="preserve" xmlns:serif="http://www.serif.com/" style="fill-rule:evenodd;clip-rule:evenodd;stroke-linejoin:round;stroke-miterlimit:1.41421;">
    <rect id="Paragraph_Block" x="0.833" y="0" width="885.827" height="177.165" style="fill:none;"/>
    <g>
        <path d="M253.43,55.754l0,32.829l-7.034,0c-8.911,0 -16.415,-7.504 -16.415,-16.415c0,-8.911 7.504,-16.414 16.415,-16.414l7.034,0m37.519,-9.38l-44.553,0c-14.07,0 -25.794,11.725 -25.794,25.794c0,14.07 11.724,25.794 25.794,25.794l7.034,0l0,32.829l9.38,0l0,-75.037l9.38,0l0,75.037l9.38,0l0,-75.037l9.379,0l0,-9.38Z" style="fill:#32373c;fill-rule:nonzero;"/>
        <path d="M372.825,85.616l0,-17.467l12.4,0c3.6,0 6.233,0.745 7.9,2.234c1.666,1.489 2.5,3.655 2.5,6.5c0,2.844 -0.834,5.022 -2.5,6.533c-1.667,1.511 -4.3,2.244 -7.9,2.2l-12.4,0Zm-6.334,-22.8l0,47.6l6.334,0l0,-19.467l14.533,0c4.8,0.045 8.433,-1.177 10.9,-3.666c2.467,-2.489 3.7,-5.956 3.7,-10.4c0,-4.445 -1.233,-7.9 -3.7,-10.367c-2.467,-2.467 -6.1,-3.7 -10.9,-3.7l-20.867,0Z" style="fill:#32373c;fill-rule:nonzero;"/>
        <path d="M439.291,110.283c-0.978,0.577 -2.333,0.866 -4.066,0.866c-1.467,0 -2.634,-0.411 -3.5,-1.233c-0.867,-0.822 -1.3,-2.167 -1.3,-4.033c-1.556,1.866 -3.367,3.211 -5.434,4.033c-2.066,0.822 -4.3,1.233 -6.7,1.233c-1.555,0 -3.033,-0.177 -4.433,-0.533c-1.4,-0.356 -2.611,-0.911 -3.633,-1.667c-1.023,-0.755 -1.834,-1.744 -2.434,-2.966c-0.6,-1.223 -0.9,-2.7 -0.9,-4.434c0,-1.955 0.334,-3.555 1,-4.8c0.667,-1.244 1.545,-2.255 2.634,-3.033c1.088,-0.778 2.333,-1.367 3.733,-1.767c1.4,-0.4 2.833,-0.733 4.3,-1c1.555,-0.311 3.033,-0.544 4.433,-0.7c1.4,-0.155 2.634,-0.377 3.7,-0.666c1.067,-0.289 1.911,-0.711 2.534,-1.267c0.622,-0.556 0.933,-1.367 0.933,-2.433c0,-1.245 -0.233,-2.245 -0.7,-3c-0.467,-0.756 -1.067,-1.334 -1.8,-1.734c-0.733,-0.4 -1.556,-0.666 -2.467,-0.8c-0.911,-0.133 -1.811,-0.2 -2.7,-0.2c-2.4,0 -4.4,0.456 -6,1.367c-1.6,0.911 -2.466,2.633 -2.6,5.167l-5.666,0c0.088,-2.134 0.533,-3.934 1.333,-5.4c0.8,-1.467 1.867,-2.656 3.2,-3.567c1.333,-0.911 2.855,-1.567 4.567,-1.967c1.711,-0.4 3.544,-0.6 5.5,-0.6c1.555,0 3.1,0.111 4.633,0.334c1.533,0.222 2.922,0.677 4.167,1.366c1.244,0.689 2.244,1.656 3,2.9c0.755,1.245 1.133,2.867 1.133,4.867l0,17.733c0,1.334 0.078,2.311 0.233,2.934c0.156,0.622 0.678,0.933 1.567,0.933c0.489,0 1.067,-0.111 1.733,-0.333l0,4.4Zm-9.2,-17.667c-0.711,0.533 -1.644,0.922 -2.8,1.167c-1.155,0.244 -2.366,0.444 -3.633,0.6c-1.267,0.155 -2.545,0.333 -3.833,0.533c-1.289,0.2 -2.445,0.522 -3.467,0.967c-1.022,0.444 -1.856,1.077 -2.5,1.9c-0.645,0.822 -0.967,1.944 -0.967,3.366c0,0.934 0.189,1.723 0.567,2.367c0.378,0.644 0.867,1.167 1.467,1.567c0.6,0.4 1.3,0.689 2.1,0.866c0.8,0.178 1.644,0.267 2.533,0.267c1.867,0 3.467,-0.256 4.8,-0.767c1.333,-0.511 2.422,-1.155 3.267,-1.933c0.844,-0.778 1.466,-1.622 1.866,-2.533c0.4,-0.911 0.6,-1.767 0.6,-2.567l0,-5.8Z" style="fill:#32373c;fill-rule:nonzero;"/>
        <path d="M444.358,75.949l0,34.467l5.667,0l0,-15.333c0,-2.223 0.222,-4.189 0.666,-5.9c0.445,-1.711 1.156,-3.167 2.134,-4.367c0.977,-1.2 2.266,-2.111 3.866,-2.733c1.6,-0.623 3.534,-0.934 5.8,-0.934l0,-6c-3.066,-0.089 -5.6,0.534 -7.6,1.867c-2,1.333 -3.689,3.4 -5.066,6.2l-0.134,0l0,-7.267l-5.333,0Z" style="fill:#32373c;fill-rule:nonzero;"/>
        <path d="M497.291,110.283c-0.978,0.577 -2.333,0.866 -4.066,0.866c-1.467,0 -2.634,-0.411 -3.5,-1.233c-0.867,-0.822 -1.3,-2.167 -1.3,-4.033c-1.556,1.866 -3.367,3.211 -5.434,4.033c-2.066,0.822 -4.3,1.233 -6.7,1.233c-1.555,0 -3.033,-0.177 -4.433,-0.533c-1.4,-0.356 -2.611,-0.911 -3.633,-1.667c-1.023,-0.755 -1.834,-1.744 -2.434,-2.966c-0.6,-1.223 -0.9,-2.7 -0.9,-4.434c0,-1.955 0.334,-3.555 1,-4.8c0.667,-1.244 1.545,-2.255 2.634,-3.033c1.088,-0.778 2.333,-1.367 3.733,-1.767c1.4,-0.4 2.833,-0.733 4.3,-1c1.555,-0.311 3.033,-0.544 4.433,-0.7c1.4,-0.155 2.634,-0.377 3.7,-0.666c1.067,-0.289 1.911,-0.711 2.534,-1.267c0.622,-0.556 0.933,-1.367 0.933,-2.433c0,-1.245 -0.233,-2.245 -0.7,-3c-0.467,-0.756 -1.067,-1.334 -1.8,-1.734c-0.733,-0.4 -1.556,-0.666 -2.467,-0.8c-0.911,-0.133 -1.811,-0.2 -2.7,-0.2c-2.4,0 -4.4,0.456 -6,1.367c-1.6,0.911 -2.466,2.633 -2.6,5.167l-5.666,0c0.088,-2.134 0.533,-3.934 1.333,-5.4c0.8,-1.467 1.867,-2.656 3.2,-3.567c1.333,-0.911 2.855,-1.567 4.567,-1.967c1.711,-0.4 3.544,-0.6 5.5,-0.6c1.555,0 3.1,0.111 4.633,0.334c1.533,0.222 2.922,0.677 4.167,1.366c1.244,0.689 2.244,1.656 3,2.9c0.755,1.245 1.133,2.867 1.133,4.867l0,17.733c0,1.334 0.078,2.311 0.233,2.934c0.156,0.622 0.678,0.933 1.567,0.933c0.489,0 1.067,-0.111 1.733,-0.333l0,4.4Zm-9.2,-17.667c-0.711,0.533 -1.644,0.922 -2.8,1.167c-1.155,0.244 -2.366,0.444 -3.633,0.6c-1.267,0.155 -2.545,0.333 -3.833,0.533c-1.289,0.2 -2.445,0.522 -3.467,0.967c-1.022,0.444 -1.856,1.077 -2.5,1.9c-0.645,0.822 -0.967,1.944 -0.967,3.366c0,0.934 0.189,1.723 0.567,2.367c0.378,0.644 0.867,1.167 1.467,1.567c0.6,0.4 1.3,0.689 2.1,0.866c0.8,0.178 1.644,0.267 2.533,0.267c1.867,0 3.467,-0.256 4.8,-0.767c1.333,-0.511 2.422,-1.155 3.267,-1.933c0.844,-0.778 1.466,-1.622 1.866,-2.533c0.4,-0.911 0.6,-1.767 0.6,-2.567l0,-5.8Z" style="fill:#32373c;fill-rule:nonzero;"/>
        <path d="M532.291,107.483l0,-31.534l-5.333,0l0,4.934l-0.067,0c-1.022,-1.911 -2.444,-3.345 -4.266,-4.3c-1.823,-0.956 -3.823,-1.434 -6,-1.434c-2.978,0 -5.489,0.567 -7.534,1.7c-2.044,1.134 -3.689,2.578 -4.933,4.334c-1.245,1.755 -2.133,3.711 -2.667,5.866c-0.533,2.156 -0.8,4.256 -0.8,6.3c0,2.356 0.322,4.589 0.967,6.7c0.644,2.111 1.611,3.956 2.9,5.534c1.289,1.577 2.889,2.833 4.8,3.766c1.911,0.934 4.155,1.4 6.733,1.4c2.222,0 4.322,-0.5 6.3,-1.5c1.978,-1 3.456,-2.566 4.434,-4.7l0.133,0l0,2.267c0,1.911 -0.189,3.667 -0.567,5.267c-0.378,1.6 -0.989,2.966 -1.833,4.1c-0.845,1.133 -1.911,2.022 -3.2,2.666c-1.289,0.645 -2.867,0.967 -4.733,0.967c-0.934,0 -1.912,-0.1 -2.934,-0.3c-1.022,-0.2 -1.966,-0.522 -2.833,-0.967c-0.867,-0.444 -1.6,-1.022 -2.2,-1.733c-0.6,-0.711 -0.922,-1.578 -0.967,-2.6l-5.666,0c0.088,1.867 0.577,3.444 1.466,4.733c0.889,1.289 2.011,2.334 3.367,3.134c1.355,0.8 2.867,1.377 4.533,1.733c1.667,0.356 3.3,0.533 4.9,0.533c5.511,0 9.556,-1.4 12.134,-4.2c2.577,-2.8 3.866,-7.022 3.866,-12.666Zm-15.866,-1.667c-1.867,0 -3.423,-0.389 -4.667,-1.167c-1.245,-0.777 -2.245,-1.8 -3,-3.066c-0.756,-1.267 -1.289,-2.678 -1.6,-4.234c-0.311,-1.555 -0.467,-3.111 -0.467,-4.666c0,-1.645 0.189,-3.223 0.567,-4.734c0.378,-1.511 0.978,-2.844 1.8,-4c0.822,-1.155 1.878,-2.077 3.167,-2.766c1.288,-0.689 2.844,-1.034 4.666,-1.034c1.778,0 3.289,0.356 4.534,1.067c1.244,0.711 2.255,1.656 3.033,2.833c0.778,1.178 1.344,2.5 1.7,3.967c0.355,1.467 0.533,2.956 0.533,4.467c0,1.6 -0.189,3.2 -0.566,4.8c-0.378,1.6 -0.967,3.033 -1.767,4.3c-0.8,1.266 -1.856,2.289 -3.167,3.066c-1.311,0.778 -2.9,1.167 -4.766,1.167Z" style="fill:#32373c;fill-rule:nonzero;"/>
        <path d="M540.625,75.949l0,34.467l5.666,0l0,-15.333c0,-2.223 0.222,-4.189 0.667,-5.9c0.444,-1.711 1.155,-3.167 2.133,-4.367c0.978,-1.2 2.267,-2.111 3.867,-2.733c1.6,-0.623 3.533,-0.934 5.8,-0.934l0,-6c-3.067,-0.089 -5.6,0.534 -7.6,1.867c-2,1.333 -3.689,3.4 -5.067,6.2l-0.133,0l0,-7.267l-5.333,0Z" style="fill:#32373c;fill-rule:nonzero;"/>
        <path d="M593.558,110.283c-0.978,0.577 -2.333,0.866 -4.067,0.866c-1.466,0 -2.633,-0.411 -3.5,-1.233c-0.866,-0.822 -1.3,-2.167 -1.3,-4.033c-1.555,1.866 -3.366,3.211 -5.433,4.033c-2.067,0.822 -4.3,1.233 -6.7,1.233c-1.556,0 -3.033,-0.177 -4.433,-0.533c-1.4,-0.356 -2.612,-0.911 -3.634,-1.667c-1.022,-0.755 -1.833,-1.744 -2.433,-2.966c-0.6,-1.223 -0.9,-2.7 -0.9,-4.434c0,-1.955 0.333,-3.555 1,-4.8c0.667,-1.244 1.544,-2.255 2.633,-3.033c1.089,-0.778 2.334,-1.367 3.734,-1.767c1.4,-0.4 2.833,-0.733 4.3,-1c1.555,-0.311 3.033,-0.544 4.433,-0.7c1.4,-0.155 2.633,-0.377 3.7,-0.666c1.067,-0.289 1.911,-0.711 2.533,-1.267c0.622,-0.556 0.934,-1.367 0.934,-2.433c0,-1.245 -0.234,-2.245 -0.7,-3c-0.467,-0.756 -1.067,-1.334 -1.8,-1.734c-0.734,-0.4 -1.556,-0.666 -2.467,-0.8c-0.911,-0.133 -1.811,-0.2 -2.7,-0.2c-2.4,0 -4.4,0.456 -6,1.367c-1.6,0.911 -2.467,2.633 -2.6,5.167l-5.667,0c0.089,-2.134 0.534,-3.934 1.334,-5.4c0.8,-1.467 1.866,-2.656 3.2,-3.567c1.333,-0.911 2.855,-1.567 4.566,-1.967c1.711,-0.4 3.545,-0.6 5.5,-0.6c1.556,0 3.1,0.111 4.634,0.334c1.533,0.222 2.922,0.677 4.166,1.366c1.245,0.689 2.245,1.656 3,2.9c0.756,1.245 1.134,2.867 1.134,4.867l0,17.733c0,1.334 0.077,2.311 0.233,2.934c0.155,0.622 0.678,0.933 1.567,0.933c0.488,0 1.066,-0.111 1.733,-0.333l0,4.4Zm-9.2,-17.667c-0.711,0.533 -1.645,0.922 -2.8,1.167c-1.156,0.244 -2.367,0.444 -3.633,0.6c-1.267,0.155 -2.545,0.333 -3.834,0.533c-1.289,0.2 -2.444,0.522 -3.466,0.967c-1.023,0.444 -1.856,1.077 -2.5,1.9c-0.645,0.822 -0.967,1.944 -0.967,3.366c0,0.934 0.189,1.723 0.567,2.367c0.377,0.644 0.866,1.167 1.466,1.567c0.6,0.4 1.3,0.689 2.1,0.866c0.8,0.178 1.645,0.267 2.534,0.267c1.866,0 3.466,-0.256 4.8,-0.767c1.333,-0.511 2.422,-1.155 3.266,-1.933c0.845,-0.778 1.467,-1.622 1.867,-2.533c0.4,-0.911 0.6,-1.767 0.6,-2.567l0,-5.8Z" style="fill:#32373c;fill-rule:nonzero;"/>
        <path d="M599.025,75.949l0,47.6l5.666,0l0,-17.733l0.134,0c0.622,1.022 1.388,1.878 2.3,2.567c0.911,0.689 1.877,1.233 2.9,1.633c1.022,0.4 2.055,0.689 3.1,0.867c1.044,0.177 1.988,0.266 2.833,0.266c2.622,0 4.922,-0.466 6.9,-1.4c1.978,-0.933 3.622,-2.211 4.933,-3.833c1.311,-1.622 2.289,-3.522 2.934,-5.7c0.644,-2.178 0.966,-4.489 0.966,-6.933c0,-2.445 -0.333,-4.756 -1,-6.934c-0.666,-2.177 -1.655,-4.1 -2.966,-5.766c-1.312,-1.667 -2.956,-2.989 -4.934,-3.967c-1.978,-0.978 -4.3,-1.467 -6.966,-1.467c-2.4,0 -4.6,0.434 -6.6,1.3c-2,0.867 -3.467,2.256 -4.4,4.167l-0.134,0l0,-4.667l-5.666,0Zm26.666,16.934c0,1.689 -0.178,3.333 -0.533,4.933c-0.356,1.6 -0.933,3.022 -1.733,4.267c-0.8,1.244 -1.856,2.244 -3.167,3c-1.311,0.755 -2.945,1.133 -4.9,1.133c-1.956,0 -3.622,-0.367 -5,-1.1c-1.378,-0.733 -2.5,-1.7 -3.367,-2.9c-0.866,-1.2 -1.5,-2.589 -1.9,-4.167c-0.4,-1.577 -0.6,-3.211 -0.6,-4.9c0,-1.6 0.189,-3.177 0.567,-4.733c0.378,-1.556 0.989,-2.944 1.833,-4.167c0.845,-1.222 1.934,-2.211 3.267,-2.966c1.333,-0.756 2.955,-1.134 4.867,-1.134c1.822,0 3.411,0.356 4.766,1.067c1.356,0.711 2.467,1.667 3.334,2.867c0.866,1.2 1.511,2.566 1.933,4.1c0.422,1.533 0.633,3.1 0.633,4.7Z" style="fill:#32373c;fill-rule:nonzero;"/>
        <path d="M638.358,62.816l0,47.6l5.667,0l0,-19.467c0,-1.555 0.211,-2.989 0.633,-4.3c0.422,-1.311 1.055,-2.455 1.9,-3.433c0.844,-0.978 1.9,-1.733 3.167,-2.267c1.266,-0.533 2.766,-0.8 4.5,-0.8c2.177,0 3.888,0.623 5.133,1.867c1.244,1.244 1.867,2.933 1.867,5.067l0,23.333l5.666,0l0,-22.667c0,-1.866 -0.189,-3.566 -0.566,-5.1c-0.378,-1.533 -1.034,-2.855 -1.967,-3.966c-0.933,-1.111 -2.156,-1.978 -3.667,-2.6c-1.511,-0.623 -3.4,-0.934 -5.666,-0.934c-1.023,0 -2.078,0.111 -3.167,0.334c-1.089,0.222 -2.133,0.566 -3.133,1.033c-1,0.467 -1.9,1.067 -2.7,1.8c-0.8,0.733 -1.423,1.633 -1.867,2.7l-0.133,0l0,-18.2l-5.667,0Z" style="fill:#32373c;fill-rule:nonzero;"/>
    </g>
</svg>
