<?xml version="1.0" encoding="UTF-8" standalone="no"?>
<!DOCTYPE svg PUBLIC "-//W3C//DTD SVG 1.1//EN" "http://www.w3.org/Graphics/SVG/1.1/DTD/svg11.dtd">
<svg width="100%" height="100%" viewBox="0 0 887 178" version="1.1" xmlns="http://www.w3.org/2000/svg" xmlns:xlink="http://www.w3.org/1999/xlink" xml:space="preserve" xmlns:serif="http://www.serif.com/" style="fill-rule:evenodd;clip-rule:evenodd;stroke-linejoin:round;stroke-miterlimit:1.41421;">
    <rect id="Quote_Block" x="0.833" y="0" width="885.827" height="177.165" style="fill:none;"/>
    <g>
        <path d="M357.735,117.47l-25.228,0l9.629,-19.258l-11.459,0l0,-38.517l38.517,0l0,34.858l-11.459,22.917Zm-9.629,-9.629l3.659,0l7.8,-15.599l0,-22.918l-19.259,0l0,19.259l17.429,0l-9.629,19.258Zm-38.517,9.629l-25.228,0l9.629,-19.258l-11.458,0l0,-38.517l38.516,0l0,34.858l-11.459,22.917Zm-9.629,-9.629l3.659,0l7.8,-15.599l0,-22.918l-19.258,0l0,19.259l17.428,0l-9.629,19.258Z" style="fill:#32373c;fill-rule:nonzero;"/>
        <path d="M453.74,98.416l-3.334,3.867l5.267,4.2c-2.133,0.889 -4.333,1.333 -6.6,1.333c-2.889,0 -5.378,-0.567 -7.467,-1.7c-2.088,-1.133 -3.8,-2.633 -5.133,-4.5c-1.333,-1.867 -2.311,-3.967 -2.933,-6.3c-0.622,-2.333 -0.934,-4.7 -0.934,-7.1c0,-2.4 0.312,-4.767 0.934,-7.1c0.622,-2.333 1.6,-4.433 2.933,-6.3c1.333,-1.867 3.045,-3.367 5.133,-4.5c2.089,-1.133 4.578,-1.7 7.467,-1.7c2.889,0 5.378,0.567 7.467,1.7c2.089,1.133 3.8,2.633 5.133,4.5c1.333,1.867 2.311,3.967 2.933,6.3c0.623,2.333 0.934,4.7 0.934,7.1c0,2.933 -0.445,5.744 -1.334,8.433c-0.888,2.689 -2.266,4.967 -4.133,6.834l-6.333,-5.067Zm14,17.667l3.2,-4l-6.267,-4.934c2.4,-2.4 4.2,-5.244 5.4,-8.533c1.2,-3.289 1.8,-6.756 1.8,-10.4c0,-3.244 -0.478,-6.367 -1.433,-9.367c-0.956,-3 -2.389,-5.655 -4.3,-7.966c-1.911,-2.311 -4.289,-4.156 -7.134,-5.534c-2.844,-1.377 -6.155,-2.066 -9.933,-2.066c-3.778,0 -7.089,0.689 -9.933,2.066c-2.845,1.378 -5.222,3.223 -7.134,5.534c-1.911,2.311 -3.344,4.966 -4.3,7.966c-0.955,3 -1.433,6.123 -1.433,9.367c0,3.244 0.478,6.367 1.433,9.367c0.956,3 2.389,5.655 4.3,7.966c1.912,2.311 4.289,4.145 7.134,5.5c2.844,1.356 6.155,2.034 9.933,2.034c4.4,0 8.2,-0.934 11.4,-2.8l7.267,5.8Z" style="fill:#32373c;fill-rule:nonzero;"/>
        <path d="M507.206,112.016l0,-34.467l-5.666,0l0,19.467c0,1.556 -0.211,2.989 -0.634,4.3c-0.422,1.311 -1.055,2.456 -1.9,3.433c-0.844,0.978 -1.9,1.734 -3.166,2.267c-1.267,0.533 -2.767,0.8 -4.5,0.8c-2.178,0 -3.889,-0.622 -5.134,-1.867c-1.244,-1.244 -1.866,-2.933 -1.866,-5.066l0,-23.334l-5.667,0l0,22.667c0,1.867 0.189,3.567 0.567,5.1c0.378,1.533 1.033,2.856 1.966,3.967c0.934,1.111 2.156,1.966 3.667,2.566c1.511,0.6 3.4,0.9 5.667,0.9c2.533,0 4.733,-0.5 6.6,-1.5c1.866,-1 3.4,-2.566 4.6,-4.7l0.133,0l0,5.467l5.333,0Z" style="fill:#32373c;fill-rule:nonzero;"/>
        <path d="M519.873,94.816c0,-2.089 0.278,-3.944 0.833,-5.567c0.556,-1.622 1.323,-2.989 2.3,-4.1c0.978,-1.111 2.123,-1.955 3.434,-2.533c1.311,-0.578 2.7,-0.867 4.166,-0.867c1.467,0 2.856,0.289 4.167,0.867c1.311,0.578 2.456,1.422 3.433,2.533c0.978,1.111 1.745,2.478 2.3,4.1c0.556,1.623 0.834,3.478 0.834,5.567c0,2.089 -0.278,3.944 -0.834,5.567c-0.555,1.622 -1.322,2.977 -2.3,4.066c-0.977,1.089 -2.122,1.923 -3.433,2.5c-1.311,0.578 -2.7,0.867 -4.167,0.867c-1.466,0 -2.855,-0.289 -4.166,-0.867c-1.311,-0.577 -2.456,-1.411 -3.434,-2.5c-0.977,-1.089 -1.744,-2.444 -2.3,-4.066c-0.555,-1.623 -0.833,-3.478 -0.833,-5.567Zm-6,0c0,2.533 0.356,4.889 1.067,7.067c0.711,2.177 1.778,4.077 3.2,5.7c1.422,1.622 3.178,2.889 5.266,3.8c2.089,0.911 4.489,1.366 7.2,1.366c2.756,0 5.167,-0.455 7.234,-1.366c2.066,-0.911 3.811,-2.178 5.233,-3.8c1.422,-1.623 2.489,-3.523 3.2,-5.7c0.711,-2.178 1.067,-4.534 1.067,-7.067c0,-2.533 -0.356,-4.9 -1.067,-7.1c-0.711,-2.2 -1.778,-4.111 -3.2,-5.733c-1.422,-1.623 -3.167,-2.9 -5.233,-3.834c-2.067,-0.933 -4.478,-1.4 -7.234,-1.4c-2.711,0 -5.111,0.467 -7.2,1.4c-2.088,0.934 -3.844,2.211 -5.266,3.834c-1.422,1.622 -2.489,3.533 -3.2,5.733c-0.711,2.2 -1.067,4.567 -1.067,7.1Z" style="fill:#32373c;fill-rule:nonzero;"/>
        <path d="M561.873,77.549l0,-10.333l-5.667,0l0,10.333l-5.866,0l0,5l5.866,0l0,21.934c0,1.6 0.156,2.889 0.467,3.866c0.311,0.978 0.789,1.734 1.433,2.267c0.645,0.533 1.489,0.9 2.534,1.1c1.044,0.2 2.3,0.3 3.766,0.3l4.334,0l0,-5l-2.6,0c-0.889,0 -1.611,-0.033 -2.167,-0.1c-0.555,-0.067 -0.989,-0.211 -1.3,-0.433c-0.311,-0.223 -0.522,-0.534 -0.633,-0.934c-0.111,-0.4 -0.167,-0.933 -0.167,-1.6l0,-21.4l6.867,0l0,-5l-6.867,0Z" style="fill:#32373c;fill-rule:nonzero;"/>
        <path d="M598.94,91.483l-19.8,0c0.089,-1.334 0.378,-2.589 0.866,-3.767c0.489,-1.178 1.156,-2.211 2,-3.1c0.845,-0.889 1.856,-1.589 3.034,-2.1c1.178,-0.511 2.5,-0.767 3.966,-0.767c1.423,0 2.723,0.256 3.9,0.767c1.178,0.511 2.2,1.2 3.067,2.067c0.867,0.866 1.556,1.9 2.067,3.1c0.511,1.2 0.811,2.466 0.9,3.8Zm5.466,9.6l-5.6,0c-0.488,2.266 -1.5,3.955 -3.033,5.066c-1.533,1.111 -3.5,1.667 -5.9,1.667c-1.867,0 -3.489,-0.311 -4.867,-0.933c-1.377,-0.623 -2.511,-1.456 -3.4,-2.5c-0.888,-1.045 -1.533,-2.245 -1.933,-3.6c-0.4,-1.356 -0.578,-2.789 -0.533,-4.3l25.8,0c0.089,-2.089 -0.1,-4.289 -0.567,-6.6c-0.467,-2.311 -1.311,-4.445 -2.533,-6.4c-1.222,-1.956 -2.845,-3.567 -4.867,-4.834c-2.022,-1.266 -4.567,-1.9 -7.633,-1.9c-2.356,0 -4.522,0.445 -6.5,1.334c-1.978,0.889 -3.689,2.133 -5.134,3.733c-1.444,1.6 -2.566,3.489 -3.366,5.667c-0.8,2.177 -1.2,4.577 -1.2,7.2c0.089,2.622 0.478,5.044 1.166,7.266c0.689,2.223 1.723,4.134 3.1,5.734c1.378,1.6 3.078,2.844 5.1,3.733c2.023,0.889 4.412,1.333 7.167,1.333c3.911,0 7.156,-0.977 9.733,-2.933c2.578,-1.956 4.245,-4.867 5,-8.733Z" style="fill:#32373c;fill-rule:nonzero;"/>
    </g>
</svg>
