<?xml version="1.0" encoding="UTF-8" standalone="no"?>
<!DOCTYPE svg PUBLIC "-//W3C//DTD SVG 1.1//EN" "http://www.w3.org/Graphics/SVG/1.1/DTD/svg11.dtd">
<svg width="100%" height="100%" viewBox="0 0 886 178" version="1.1" xmlns="http://www.w3.org/2000/svg" xmlns:xlink="http://www.w3.org/1999/xlink" xml:space="preserve" xmlns:serif="http://www.serif.com/" style="fill-rule:evenodd;clip-rule:evenodd;stroke-linejoin:round;stroke-miterlimit:1.41421;">
    <rect id="registerBlockType--" serif:id="registerBlockType()" x="0" y="0.749" width="885.827" height="177.165" style="fill:none;"/>
    <clipPath id="_clip1">
        <rect x="0" y="0.749" width="885.827" height="177.165"/>
    </clipPath>
    <g clip-path="url(#_clip1)">
        <rect x="0" y="0.749" width="885.827" height="177.165" style="fill:#32373c;"/>
        <path d="M47.788,80.941c0.282,0 0.575,0.008 0.879,0.025c0.304,0.016 0.594,0.043 0.871,0.081c0.276,0.038 0.531,0.084 0.765,0.138c0.233,0.055 0.426,0.114 0.578,0.179l-0.407,2.946c-0.586,-0.13 -1.142,-0.225 -1.669,-0.285c-0.526,-0.059 -1.077,-0.089 -1.652,-0.089c-1.41,0 -2.552,0.32 -3.426,0.96c-0.873,0.64 -1.516,1.536 -1.929,2.686l0,11.295l-3.027,0l0,-17.61l2.865,0l0.146,2.799c0.716,-0.966 1.576,-1.728 2.58,-2.287c1.004,-0.558 2.146,-0.838 3.426,-0.838Z" style="fill:#fff;fill-rule:nonzero;"/>
        <path d="M64.032,99.203c-1.237,0 -2.374,-0.212 -3.41,-0.635c-1.037,-0.423 -1.924,-1.014 -2.661,-1.774c-0.738,-0.76 -1.313,-1.66 -1.726,-2.702c-0.412,-1.041 -0.618,-2.175 -0.618,-3.402l0,-0.683c0,-1.422 0.228,-2.694 0.683,-3.817c0.456,-1.123 1.061,-2.072 1.815,-2.848c0.754,-0.776 1.612,-1.37 2.572,-1.782c0.96,-0.413 1.945,-0.619 2.954,-0.619c1.269,0 2.379,0.22 3.328,0.659c0.95,0.44 1.739,1.047 2.369,1.823c0.629,0.776 1.098,1.69 1.407,2.743c0.31,1.052 0.464,2.192 0.464,3.418l0,1.351l-12.581,0c0.032,0.803 0.187,1.557 0.464,2.262c0.276,0.705 0.656,1.321 1.139,1.847c0.483,0.527 1.061,0.942 1.733,1.245c0.673,0.304 1.417,0.456 2.23,0.456c1.075,0 2.029,-0.217 2.865,-0.651c0.835,-0.434 1.53,-1.009 2.083,-1.725l1.839,1.432c-0.293,0.445 -0.659,0.871 -1.098,1.278c-0.44,0.407 -0.947,0.768 -1.522,1.082c-0.575,0.315 -1.226,0.567 -1.953,0.757c-0.727,0.19 -1.519,0.285 -2.376,0.285Zm-0.391,-15.788c-0.608,0 -1.183,0.111 -1.725,0.334c-0.543,0.222 -1.031,0.548 -1.465,0.976c-0.434,0.429 -0.8,0.955 -1.099,1.579c-0.298,0.624 -0.507,1.343 -0.626,2.157l9.472,0l0,-0.228c-0.032,-0.586 -0.144,-1.167 -0.333,-1.742c-0.19,-0.575 -0.47,-1.09 -0.839,-1.546c-0.369,-0.456 -0.832,-0.825 -1.391,-1.107c-0.559,-0.282 -1.224,-0.423 -1.994,-0.423Z" style="fill:#fff;fill-rule:nonzero;"/>
        <path d="M75.701,89.926c0,-1.313 0.161,-2.521 0.481,-3.622c0.32,-1.101 0.784,-2.048 1.391,-2.84c0.608,-0.792 1.346,-1.411 2.214,-1.856c0.868,-0.444 1.85,-0.667 2.946,-0.667c1.085,0 2.037,0.193 2.856,0.578c0.819,0.385 1.517,0.941 2.092,1.668l0.146,-1.92l2.734,0l0,17.236c0,1.161 -0.181,2.192 -0.545,3.092c-0.363,0.901 -0.873,1.666 -1.53,2.295c-0.656,0.63 -1.44,1.107 -2.352,1.433c-0.911,0.325 -1.92,0.488 -3.027,0.488c-0.456,0 -0.976,-0.052 -1.562,-0.155c-0.586,-0.103 -1.18,-0.271 -1.783,-0.504c-0.602,-0.234 -1.182,-0.545 -1.741,-0.936c-0.559,-0.391 -1.039,-0.874 -1.441,-1.449l1.563,-1.806c0.369,0.445 0.749,0.822 1.139,1.131c0.391,0.309 0.787,0.556 1.188,0.74c0.402,0.185 0.803,0.318 1.205,0.399c0.401,0.082 0.803,0.122 1.204,0.122c0.716,0 1.362,-0.103 1.937,-0.309c0.575,-0.206 1.066,-0.507 1.473,-0.903c0.407,-0.396 0.719,-0.887 0.936,-1.473c0.217,-0.586 0.325,-1.259 0.325,-2.019l0,-1.513c-0.586,0.673 -1.277,1.185 -2.075,1.538c-0.797,0.353 -1.722,0.529 -2.775,0.529c-1.074,0 -2.045,-0.228 -2.913,-0.684c-0.868,-0.455 -1.603,-1.085 -2.206,-1.888c-0.602,-0.803 -1.066,-1.749 -1.391,-2.84c-0.326,-1.09 -0.489,-2.265 -0.489,-3.524l0,-0.341Zm3.012,0.341c0,0.858 0.089,1.671 0.268,2.442c0.179,0.77 0.461,1.448 0.846,2.034c0.386,0.586 0.877,1.05 1.473,1.392c0.597,0.342 1.313,0.513 2.149,0.513c0.521,0 0.99,-0.063 1.408,-0.188c0.417,-0.124 0.792,-0.301 1.123,-0.529c0.331,-0.227 0.626,-0.499 0.887,-0.813c0.26,-0.315 0.488,-0.662 0.683,-1.042l0,-8.073c-0.195,-0.369 -0.423,-0.705 -0.683,-1.009c-0.261,-0.304 -0.559,-0.567 -0.895,-0.79c-0.337,-0.222 -0.711,-0.396 -1.123,-0.52c-0.413,-0.125 -0.868,-0.188 -1.368,-0.188c-0.846,0 -1.57,0.174 -2.172,0.521c-0.603,0.348 -1.096,0.817 -1.482,1.408c-0.385,0.592 -0.667,1.275 -0.846,2.051c-0.179,0.776 -0.268,1.592 -0.268,2.45l0,0.341Z" style="fill:#fff;fill-rule:nonzero;"/>
        <path d="M96.73,81.267l9.001,0l0,15.006l5.745,0l0,2.604l-14.746,0l0,-2.604l5.99,0l0,-12.386l-5.99,0l0,-2.62Zm5.599,-4.623c0,-0.499 0.149,-0.919 0.448,-1.261c0.298,-0.342 0.751,-0.513 1.359,-0.513c0.597,0 1.047,0.171 1.351,0.513c0.303,0.342 0.455,0.762 0.455,1.261c0,0.489 -0.152,0.895 -0.455,1.221c-0.304,0.325 -0.754,0.488 -1.351,0.488c-0.608,0 -1.061,-0.163 -1.359,-0.488c-0.299,-0.326 -0.448,-0.732 -0.448,-1.221Z" style="fill:#fff;fill-rule:nonzero;"/>
        <path d="M127.964,94.206c0,-0.358 -0.071,-0.681 -0.212,-0.968c-0.141,-0.288 -0.38,-0.551 -0.716,-0.79c-0.336,-0.238 -0.781,-0.458 -1.335,-0.659c-0.553,-0.201 -1.242,-0.382 -2.067,-0.545c-1.009,-0.206 -1.928,-0.456 -2.758,-0.749c-0.83,-0.293 -1.541,-0.643 -2.133,-1.05c-0.591,-0.407 -1.049,-0.884 -1.375,-1.432c-0.325,-0.548 -0.488,-1.185 -0.488,-1.912c0,-0.716 0.168,-1.387 0.504,-2.01c0.337,-0.624 0.809,-1.17 1.416,-1.636c0.608,-0.467 1.332,-0.836 2.173,-1.107c0.841,-0.271 1.766,-0.407 2.775,-0.407c1.085,0 2.062,0.141 2.93,0.423c0.868,0.282 1.606,0.673 2.214,1.172c0.607,0.499 1.077,1.083 1.407,1.75c0.331,0.667 0.497,1.386 0.497,2.156l-3.011,0c0,-0.379 -0.098,-0.751 -0.293,-1.114c-0.195,-0.364 -0.467,-0.687 -0.814,-0.969c-0.347,-0.282 -0.768,-0.51 -1.261,-0.683c-0.494,-0.174 -1.05,-0.261 -1.669,-0.261c-0.64,0 -1.201,0.071 -1.684,0.212c-0.483,0.141 -0.885,0.331 -1.205,0.569c-0.32,0.239 -0.561,0.516 -0.724,0.83c-0.163,0.315 -0.244,0.641 -0.244,0.977c0,0.347 0.065,0.656 0.195,0.928c0.13,0.271 0.356,0.515 0.676,0.732c0.32,0.217 0.748,0.412 1.286,0.586c0.537,0.174 1.217,0.342 2.042,0.505c1.085,0.228 2.056,0.491 2.914,0.789c0.857,0.298 1.578,0.656 2.164,1.074c0.586,0.418 1.034,0.904 1.343,1.457c0.309,0.553 0.464,1.194 0.464,1.921c0,0.781 -0.176,1.492 -0.529,2.132c-0.353,0.64 -0.844,1.188 -1.473,1.644c-0.629,0.455 -1.384,0.808 -2.262,1.058c-0.879,0.249 -1.84,0.374 -2.881,0.374c-1.194,0 -2.257,-0.16 -3.19,-0.48c-0.934,-0.32 -1.723,-0.744 -2.369,-1.27c-0.645,-0.526 -1.139,-1.136 -1.481,-1.831c-0.341,-0.694 -0.512,-1.416 -0.512,-2.165l3.011,0c0.043,0.619 0.209,1.14 0.496,1.563c0.288,0.423 0.646,0.765 1.074,1.025c0.429,0.261 0.904,0.445 1.425,0.554c0.52,0.108 1.036,0.162 1.546,0.162c1.269,0 2.273,-0.233 3.011,-0.699c0.738,-0.467 1.112,-1.085 1.123,-1.856Z" style="fill:#fff;fill-rule:nonzero;"/>
        <path d="M143.394,77.002l0,4.265l6.705,0l0,2.327l-6.705,0l0,9.57c0,0.684 0.086,1.248 0.26,1.693c0.174,0.445 0.412,0.8 0.716,1.066c0.304,0.266 0.654,0.453 1.05,0.562c0.396,0.108 0.816,0.163 1.261,0.163c0.326,0 0.662,-0.019 1.009,-0.057c0.348,-0.038 0.687,-0.085 1.018,-0.139c0.331,-0.054 0.64,-0.111 0.927,-0.171c0.288,-0.059 0.524,-0.111 0.708,-0.154l0.424,2.132c-0.25,0.152 -0.554,0.285 -0.912,0.399c-0.358,0.114 -0.749,0.211 -1.172,0.293c-0.423,0.081 -0.871,0.143 -1.343,0.187c-0.472,0.043 -0.941,0.065 -1.407,0.065c-0.782,0 -1.511,-0.111 -2.19,-0.334c-0.678,-0.222 -1.266,-0.575 -1.765,-1.058c-0.5,-0.483 -0.893,-1.107 -1.18,-1.871c-0.288,-0.765 -0.432,-1.69 -0.432,-2.776l0,-9.57l-4.622,0l0,-2.327l4.622,0l0,-4.265l3.028,0Z" style="fill:#fff;fill-rule:nonzero;"/>
        <path d="M164.048,99.203c-1.237,0 -2.374,-0.212 -3.41,-0.635c-1.036,-0.423 -1.923,-1.014 -2.661,-1.774c-0.738,-0.76 -1.313,-1.66 -1.725,-2.702c-0.413,-1.041 -0.619,-2.175 -0.619,-3.402l0,-0.683c0,-1.422 0.228,-2.694 0.684,-3.817c0.455,-1.123 1.06,-2.072 1.814,-2.848c0.755,-0.776 1.612,-1.37 2.572,-1.782c0.96,-0.413 1.945,-0.619 2.954,-0.619c1.27,0 2.379,0.22 3.329,0.659c0.949,0.44 1.738,1.047 2.368,1.823c0.629,0.776 1.098,1.69 1.408,2.743c0.309,1.052 0.464,2.192 0.464,3.418l0,1.351l-12.582,0c0.033,0.803 0.187,1.557 0.464,2.262c0.277,0.705 0.657,1.321 1.139,1.847c0.483,0.527 1.061,0.942 1.734,1.245c0.673,0.304 1.416,0.456 2.23,0.456c1.074,0 2.029,-0.217 2.864,-0.651c0.836,-0.434 1.53,-1.009 2.084,-1.725l1.839,1.432c-0.293,0.445 -0.659,0.871 -1.099,1.278c-0.439,0.407 -0.947,0.768 -1.522,1.082c-0.575,0.315 -1.226,0.567 -1.953,0.757c-0.727,0.19 -1.519,0.285 -2.376,0.285Zm-0.391,-15.788c-0.607,0 -1.183,0.111 -1.725,0.334c-0.543,0.222 -1.031,0.548 -1.465,0.976c-0.434,0.429 -0.8,0.955 -1.099,1.579c-0.298,0.624 -0.507,1.343 -0.626,2.157l9.472,0l0,-0.228c-0.032,-0.586 -0.143,-1.167 -0.333,-1.742c-0.19,-0.575 -0.469,-1.09 -0.838,-1.546c-0.369,-0.456 -0.833,-0.825 -1.392,-1.107c-0.559,-0.282 -1.223,-0.423 -1.994,-0.423Z" style="fill:#fff;fill-rule:nonzero;"/>
        <path d="M187.811,80.941c0.282,0 0.575,0.008 0.879,0.025c0.304,0.016 0.594,0.043 0.871,0.081c0.276,0.038 0.531,0.084 0.764,0.138c0.234,0.055 0.426,0.114 0.578,0.179l-0.407,2.946c-0.586,-0.13 -1.142,-0.225 -1.668,-0.285c-0.526,-0.059 -1.077,-0.089 -1.652,-0.089c-1.411,0 -2.553,0.32 -3.426,0.96c-0.874,0.64 -1.516,1.536 -1.929,2.686l0,11.295l-3.027,0l0,-17.61l2.865,0l0.146,2.799c0.716,-0.966 1.576,-1.728 2.58,-2.287c1.003,-0.558 2.145,-0.838 3.426,-0.838Z" style="fill:#fff;fill-rule:nonzero;"/>
        <path d="M196.242,98.877l0,-23.698l7.047,0c0.977,0.011 1.932,0.139 2.865,0.383c0.933,0.244 1.763,0.621 2.49,1.131c0.727,0.51 1.308,1.161 1.742,1.953c0.434,0.792 0.645,1.742 0.634,2.849c-0.01,0.618 -0.111,1.182 -0.301,1.692c-0.19,0.51 -0.45,0.969 -0.781,1.376c-0.331,0.406 -0.719,0.762 -1.164,1.066c-0.444,0.303 -0.916,0.564 -1.416,0.781c0.63,0.184 1.208,0.447 1.734,0.789c0.526,0.342 0.979,0.754 1.359,1.237c0.38,0.483 0.675,1.028 0.887,1.636c0.211,0.608 0.317,1.264 0.317,1.969c0.011,1.107 -0.2,2.084 -0.635,2.93c-0.434,0.846 -1.014,1.554 -1.741,2.124c-0.727,0.57 -1.565,1.007 -2.515,1.31c-0.949,0.304 -1.928,0.461 -2.938,0.472l-7.584,0Zm3.027,-11.084l0,8.529l4.639,0c0.629,-0.011 1.226,-0.117 1.79,-0.317c0.564,-0.201 1.064,-0.481 1.498,-0.839c0.434,-0.358 0.778,-0.797 1.033,-1.318c0.255,-0.521 0.383,-1.112 0.383,-1.774c0.01,-0.673 -0.101,-1.27 -0.334,-1.79c-0.233,-0.521 -0.556,-0.963 -0.968,-1.327c-0.413,-0.363 -0.896,-0.643 -1.449,-0.838c-0.553,-0.195 -1.15,-0.304 -1.79,-0.326l-4.802,0Zm0,-2.506l4.199,0c0.565,-0.011 1.118,-0.101 1.661,-0.269c0.542,-0.168 1.025,-0.412 1.448,-0.732c0.423,-0.32 0.765,-0.714 1.026,-1.18c0.26,-0.467 0.39,-1.009 0.39,-1.628c0,-0.662 -0.127,-1.226 -0.382,-1.692c-0.255,-0.467 -0.597,-0.85 -1.026,-1.148c-0.428,-0.298 -0.922,-0.518 -1.481,-0.659c-0.559,-0.141 -1.131,-0.217 -1.717,-0.228l-4.118,0l0,7.536Z" style="fill:#fff;fill-rule:nonzero;"/>
        <path d="M216.75,73.877l9,0l0,22.396l5.746,0l0,2.604l-14.746,0l0,-2.604l5.989,0l0,-19.775l-5.989,0l0,-2.621Z" style="fill:#fff;fill-rule:nonzero;"/>
        <path d="M235.435,89.909c0,-1.269 0.184,-2.449 0.553,-3.54c0.369,-1.09 0.898,-2.037 1.587,-2.84c0.689,-0.803 1.527,-1.435 2.514,-1.896c0.988,-0.461 2.1,-0.692 3.337,-0.692c1.248,0 2.368,0.231 3.361,0.692c0.993,0.461 1.834,1.093 2.523,1.896c0.689,0.803 1.218,1.75 1.587,2.84c0.369,1.091 0.553,2.271 0.553,3.54l0,0.358c0,1.27 -0.184,2.447 -0.553,3.532c-0.369,1.085 -0.898,2.029 -1.587,2.832c-0.689,0.803 -1.527,1.433 -2.515,1.888c-0.987,0.456 -2.099,0.684 -3.336,0.684c-1.248,0 -2.369,-0.228 -3.361,-0.684c-0.993,-0.455 -1.834,-1.085 -2.523,-1.888c-0.689,-0.803 -1.218,-1.747 -1.587,-2.832c-0.369,-1.085 -0.553,-2.262 -0.553,-3.532l0,-0.358Zm3.011,0.358c0,0.868 0.103,1.696 0.309,2.482c0.206,0.787 0.518,1.479 0.936,2.076c0.417,0.596 0.941,1.068 1.57,1.416c0.63,0.347 1.362,0.52 2.198,0.52c0.824,0 1.549,-0.173 2.172,-0.52c0.624,-0.348 1.145,-0.82 1.563,-1.416c0.418,-0.597 0.73,-1.289 0.936,-2.076c0.206,-0.786 0.309,-1.614 0.309,-2.482l0,-0.358c0,-0.857 -0.106,-1.679 -0.317,-2.466c-0.212,-0.786 -0.527,-1.478 -0.944,-2.075c-0.418,-0.597 -0.939,-1.071 -1.563,-1.424c-0.624,-0.353 -1.353,-0.529 -2.189,-0.529c-0.835,0 -1.562,0.176 -2.181,0.529c-0.618,0.353 -1.137,0.827 -1.554,1.424c-0.418,0.597 -0.73,1.289 -0.936,2.075c-0.206,0.787 -0.309,1.609 -0.309,2.466l0,0.358Z" style="fill:#fff;fill-rule:nonzero;"/>
        <path d="M263.787,96.761c0.543,0 1.072,-0.086 1.587,-0.26c0.516,-0.174 0.974,-0.415 1.376,-0.724c0.401,-0.309 0.724,-0.673 0.968,-1.091c0.244,-0.417 0.372,-0.871 0.383,-1.359l2.848,0c-0.011,0.781 -0.214,1.527 -0.61,2.238c-0.397,0.711 -0.926,1.335 -1.587,1.872c-0.662,0.537 -1.422,0.966 -2.279,1.286c-0.857,0.32 -1.752,0.48 -2.686,0.48c-1.334,0 -2.501,-0.239 -3.499,-0.716c-0.998,-0.478 -1.831,-1.121 -2.498,-1.929c-0.668,-0.808 -1.169,-1.742 -1.506,-2.799c-0.336,-1.058 -0.504,-2.173 -0.504,-3.345l0,-0.684c0,-1.161 0.168,-2.273 0.504,-3.336c0.337,-1.064 0.838,-2 1.506,-2.808c0.667,-0.808 1.5,-1.451 2.498,-1.929c0.998,-0.477 2.165,-0.716 3.499,-0.716c1.042,0 2,0.166 2.873,0.497c0.874,0.331 1.628,0.781 2.263,1.35c0.634,0.57 1.131,1.246 1.489,2.027c0.358,0.781 0.537,1.617 0.537,2.506l-2.848,0c-0.011,-0.531 -0.128,-1.033 -0.35,-1.505c-0.223,-0.472 -0.524,-0.887 -0.904,-1.245c-0.379,-0.358 -0.832,-0.64 -1.359,-0.847c-0.526,-0.206 -1.093,-0.309 -1.701,-0.309c-0.933,0 -1.717,0.187 -2.351,0.562c-0.635,0.374 -1.148,0.862 -1.539,1.464c-0.39,0.603 -0.67,1.278 -0.838,2.027c-0.168,0.749 -0.252,1.503 -0.252,2.262l0,0.684c0,0.77 0.084,1.532 0.252,2.287c0.168,0.754 0.445,1.432 0.83,2.034c0.385,0.602 0.895,1.091 1.53,1.465c0.635,0.374 1.424,0.561 2.368,0.561Z" style="fill:#fff;fill-rule:nonzero;"/>
        <path d="M281.561,90.658l-2.214,2.132l0,6.087l-3.027,0l0,-25l3.027,0l0,15.3l1.97,-2.116l5.778,-5.794l3.662,0l-7.129,7.34l8.219,10.27l-3.825,0l-6.461,-8.219Z" style="fill:#fff;fill-rule:nonzero;"/>
        <path d="M312.274,77.751l-7.324,0l0,21.126l-2.93,0l0,-21.126l-7.324,0l0,-2.572l17.578,0l0,2.572Z" style="fill:#fff;fill-rule:nonzero;"/>
        <path d="M322.772,92.627l0.781,2.133l5.371,-13.493l3.369,0l-8.935,20.328c-0.206,0.456 -0.47,0.939 -0.79,1.449c-0.32,0.51 -0.708,0.982 -1.163,1.416c-0.456,0.434 -0.988,0.798 -1.595,1.091c-0.608,0.292 -1.308,0.439 -2.1,0.439c-0.141,0 -0.298,-0.008 -0.472,-0.024c-0.174,-0.017 -0.347,-0.038 -0.521,-0.066c-0.174,-0.027 -0.336,-0.057 -0.488,-0.089c-0.152,-0.033 -0.277,-0.06 -0.375,-0.081l0.489,-2.458c0.076,0 0.179,0.005 0.309,0.016c0.13,0.011 0.266,0.022 0.407,0.033c0.141,0.011 0.277,0.019 0.407,0.024c0.13,0.006 0.233,0.008 0.309,0.008c0.412,0 0.789,-0.114 1.131,-0.342c0.342,-0.227 0.646,-0.499 0.912,-0.813c0.266,-0.315 0.493,-0.641 0.683,-0.977c0.19,-0.336 0.339,-0.613 0.448,-0.83l1.204,-2.344l-7.584,-16.78l3.369,0l4.834,11.36Z" style="fill:#fff;fill-rule:nonzero;"/>
        <path d="M351.157,90.267c0,1.259 -0.152,2.434 -0.456,3.524c-0.303,1.091 -0.748,2.037 -1.334,2.84c-0.586,0.803 -1.31,1.433 -2.173,1.888c-0.863,0.456 -1.847,0.684 -2.954,0.684c-1.074,0 -2.021,-0.174 -2.84,-0.521c-0.82,-0.347 -1.522,-0.846 -2.108,-1.497l0,8.463l-3.011,0l0,-24.381l2.751,0l0.146,1.92c0.586,-0.727 1.294,-1.283 2.124,-1.668c0.83,-0.385 1.793,-0.578 2.889,-0.578c1.129,0 2.127,0.223 2.995,0.667c0.868,0.445 1.595,1.064 2.181,1.856c0.586,0.792 1.031,1.739 1.334,2.84c0.304,1.101 0.456,2.309 0.456,3.622l0,0.341Zm-3.011,-0.341c0,-0.858 -0.095,-1.674 -0.285,-2.45c-0.19,-0.776 -0.483,-1.459 -0.879,-2.051c-0.396,-0.591 -0.897,-1.06 -1.505,-1.408c-0.608,-0.347 -1.335,-0.521 -2.181,-0.521c-0.966,0 -1.777,0.226 -2.433,0.676c-0.657,0.45 -1.18,1.028 -1.571,1.733l0,8.48c0.391,0.695 0.911,1.262 1.562,1.701c0.652,0.439 1.476,0.659 2.474,0.659c0.836,0 1.557,-0.176 2.165,-0.529c0.608,-0.352 1.107,-0.827 1.498,-1.424c0.39,-0.597 0.68,-1.286 0.87,-2.067c0.19,-0.781 0.285,-1.6 0.285,-2.458l0,-0.341Z" style="fill:#fff;fill-rule:nonzero;"/>
        <path d="M364.08,99.203c-1.237,0 -2.373,-0.212 -3.409,-0.635c-1.037,-0.423 -1.924,-1.014 -2.662,-1.774c-0.737,-0.76 -1.313,-1.66 -1.725,-2.702c-0.412,-1.041 -0.618,-2.175 -0.618,-3.402l0,-0.683c0,-1.422 0.228,-2.694 0.683,-3.817c0.456,-1.123 1.061,-2.072 1.815,-2.848c0.754,-0.776 1.611,-1.37 2.572,-1.782c0.96,-0.413 1.945,-0.619 2.954,-0.619c1.269,0 2.379,0.22 3.328,0.659c0.95,0.44 1.739,1.047 2.368,1.823c0.63,0.776 1.099,1.69 1.408,2.743c0.309,1.052 0.464,2.192 0.464,3.418l0,1.351l-12.581,0c0.032,0.803 0.187,1.557 0.464,2.262c0.276,0.705 0.656,1.321 1.139,1.847c0.483,0.527 1.061,0.942 1.733,1.245c0.673,0.304 1.416,0.456 2.23,0.456c1.074,0 2.029,-0.217 2.865,-0.651c0.835,-0.434 1.53,-1.009 2.083,-1.725l1.839,1.432c-0.293,0.445 -0.659,0.871 -1.098,1.278c-0.44,0.407 -0.947,0.768 -1.522,1.082c-0.575,0.315 -1.226,0.567 -1.953,0.757c-0.727,0.19 -1.519,0.285 -2.377,0.285Zm-0.39,-15.788c-0.608,0 -1.183,0.111 -1.726,0.334c-0.542,0.222 -1.03,0.548 -1.464,0.976c-0.434,0.429 -0.801,0.955 -1.099,1.579c-0.298,0.624 -0.507,1.343 -0.627,2.157l9.473,0l0,-0.228c-0.033,-0.586 -0.144,-1.167 -0.334,-1.742c-0.19,-0.575 -0.469,-1.09 -0.838,-1.546c-0.369,-0.456 -0.833,-0.825 -1.391,-1.107c-0.559,-0.282 -1.224,-0.423 -1.994,-0.423Z" style="fill:#fff;fill-rule:nonzero;"/>
        <path d="M379.282,89.258c0,-1.551 0.122,-3.011 0.366,-4.378c0.245,-1.367 0.573,-2.634 0.985,-3.801c0.412,-1.166 0.887,-2.232 1.424,-3.198c0.537,-0.965 1.102,-1.823 1.693,-2.571c0.591,-0.749 1.185,-1.389 1.782,-1.921c0.597,-0.532 1.167,-0.949 1.709,-1.253l0.635,1.985c-0.673,0.51 -1.343,1.205 -2.01,2.084c-0.667,0.879 -1.264,1.945 -1.791,3.198c-0.526,1.253 -0.954,2.696 -1.285,4.329c-0.331,1.634 -0.497,3.465 -0.497,5.494l0,0.228c0,2.029 0.166,3.862 0.497,5.501c0.331,1.638 0.759,3.087 1.285,4.346c0.527,1.258 1.124,2.335 1.791,3.23c0.667,0.895 1.337,1.614 2.01,2.157l-0.635,1.839c-0.542,-0.304 -1.115,-0.719 -1.717,-1.245c-0.602,-0.526 -1.199,-1.166 -1.79,-1.921c-0.592,-0.754 -1.156,-1.611 -1.693,-2.571c-0.537,-0.961 -1.009,-2.024 -1.416,-3.19c-0.407,-1.167 -0.732,-2.434 -0.977,-3.801c-0.244,-1.367 -0.366,-2.826 -0.366,-4.378l0,-0.163Z" style="fill:#fff;fill-rule:nonzero;"/>
        <path d="M424.106,75.684l-0.341,5.99l-2.246,0l0.016,-5.73l0,-2.067l2.571,0l0,1.807Z" style="fill:#fff;fill-rule:nonzero;"/>
        <path d="M437.697,81.267l0.081,1.66c0.358,-0.619 0.828,-1.102 1.408,-1.449c0.581,-0.347 1.283,-0.526 2.108,-0.537c1.617,0 2.696,0.629 3.239,1.888c0.347,-0.564 0.806,-1.017 1.375,-1.359c0.57,-0.342 1.262,-0.518 2.075,-0.529c1.292,0 2.284,0.396 2.979,1.188c0.694,0.792 1.042,1.991 1.042,3.597l0,13.151l-2.865,0l0,-13.183c0,-1.476 -0.678,-2.208 -2.035,-2.198c-0.358,0 -0.667,0.049 -0.927,0.147c-0.261,0.098 -0.478,0.231 -0.651,0.399c-0.174,0.168 -0.31,0.363 -0.407,0.586c-0.098,0.222 -0.163,0.453 -0.196,0.691l0,13.558l-2.864,0l0,-13.2c0,-0.705 -0.157,-1.247 -0.472,-1.627c-0.315,-0.38 -0.814,-0.564 -1.498,-0.554c-0.629,0 -1.117,0.125 -1.464,0.375c-0.348,0.249 -0.603,0.58 -0.765,0.993l0,14.013l-2.865,0l0,-17.61l2.702,0Z" style="fill:#fff;fill-rule:nonzero;"/>
        <path d="M462.795,92.627l0.781,2.133l5.371,-13.493l3.369,0l-8.935,20.328c-0.207,0.456 -0.47,0.939 -0.79,1.449c-0.32,0.51 -0.708,0.982 -1.164,1.416c-0.455,0.434 -0.987,0.798 -1.595,1.091c-0.607,0.292 -1.307,0.439 -2.099,0.439c-0.141,0 -0.299,-0.008 -0.472,-0.024c-0.174,-0.017 -0.348,-0.038 -0.521,-0.066c-0.174,-0.027 -0.336,-0.057 -0.488,-0.089c-0.152,-0.033 -0.277,-0.06 -0.375,-0.081l0.489,-2.458c0.075,0 0.179,0.005 0.309,0.016c0.13,0.011 0.266,0.022 0.407,0.033c0.141,0.011 0.276,0.019 0.407,0.024c0.13,0.006 0.233,0.008 0.309,0.008c0.412,0 0.789,-0.114 1.131,-0.342c0.342,-0.227 0.646,-0.499 0.911,-0.813c0.266,-0.315 0.494,-0.641 0.684,-0.977c0.19,-0.336 0.339,-0.613 0.448,-0.83l1.204,-2.344l-7.585,-16.78l3.37,0l4.834,11.36Z" style="fill:#fff;fill-rule:nonzero;"/>
        <rect x="477.036" y="87.273" width="12.451" height="2.474" style="fill:#fff;fill-rule:nonzero;"/>
        <path d="M511.2,90.267c0,1.259 -0.152,2.434 -0.456,3.524c-0.304,1.091 -0.749,2.037 -1.335,2.84c-0.586,0.803 -1.31,1.433 -2.173,1.888c-0.862,0.456 -1.847,0.684 -2.954,0.684c-1.074,0 -2.021,-0.174 -2.84,-0.521c-0.819,-0.347 -1.522,-0.846 -2.108,-1.497l0,8.463l-3.011,0l0,-24.381l2.751,0l0.146,1.92c0.586,-0.727 1.294,-1.283 2.124,-1.668c0.83,-0.385 1.793,-0.578 2.889,-0.578c1.129,0 2.127,0.223 2.995,0.667c0.868,0.445 1.595,1.064 2.181,1.856c0.586,0.792 1.031,1.739 1.335,2.84c0.304,1.101 0.456,2.309 0.456,3.622l0,0.341Zm-3.012,-0.341c0,-0.858 -0.094,-1.674 -0.284,-2.45c-0.19,-0.776 -0.483,-1.459 -0.879,-2.051c-0.396,-0.591 -0.898,-1.06 -1.506,-1.408c-0.607,-0.347 -1.334,-0.521 -2.181,-0.521c-0.966,0 -1.777,0.226 -2.433,0.676c-0.657,0.45 -1.18,1.028 -1.571,1.733l0,8.48c0.391,0.695 0.912,1.262 1.563,1.701c0.651,0.439 1.475,0.659 2.474,0.659c0.835,0 1.557,-0.176 2.164,-0.529c0.608,-0.352 1.107,-0.827 1.498,-1.424c0.39,-0.597 0.681,-1.286 0.871,-2.067c0.19,-0.781 0.284,-1.6 0.284,-2.458l0,-0.341Z" style="fill:#fff;fill-rule:nonzero;"/>
        <path d="M516.815,73.877l9,0l0,22.396l5.746,0l0,2.604l-14.746,0l0,-2.604l5.989,0l0,-19.775l-5.989,0l0,-2.621Z" style="fill:#fff;fill-rule:nonzero;"/>
        <path d="M547.772,96.452c-0.586,0.868 -1.319,1.544 -2.197,2.027c-0.879,0.482 -1.894,0.724 -3.044,0.724c-0.922,0 -1.758,-0.144 -2.507,-0.431c-0.748,-0.288 -1.389,-0.736 -1.92,-1.343c-0.532,-0.608 -0.941,-1.381 -1.229,-2.32c-0.288,-0.938 -0.431,-2.064 -0.431,-3.377l0,-10.465l3.011,0l0,10.498c0,0.955 0.076,1.747 0.228,2.376c0.152,0.629 0.379,1.131 0.683,1.506c0.304,0.374 0.676,0.637 1.115,0.789c0.44,0.152 0.947,0.228 1.522,0.228c1.226,0 2.216,-0.25 2.97,-0.749c0.754,-0.499 1.316,-1.172 1.685,-2.018l0,-12.63l3.027,0l0,17.61l-2.734,0l-0.179,-2.425Z" style="fill:#fff;fill-rule:nonzero;"/>
        <path d="M555.796,89.926c0,-1.313 0.16,-2.521 0.48,-3.622c0.32,-1.101 0.784,-2.048 1.392,-2.84c0.607,-0.792 1.345,-1.411 2.213,-1.856c0.868,-0.444 1.85,-0.667 2.946,-0.667c1.085,0 2.037,0.193 2.857,0.578c0.819,0.385 1.516,0.941 2.091,1.668l0.147,-1.92l2.734,0l0,17.236c0,1.161 -0.182,2.192 -0.545,3.092c-0.364,0.901 -0.874,1.666 -1.53,2.295c-0.657,0.63 -1.441,1.107 -2.352,1.433c-0.912,0.325 -1.921,0.488 -3.028,0.488c-0.455,0 -0.976,-0.052 -1.562,-0.155c-0.586,-0.103 -1.18,-0.271 -1.782,-0.504c-0.602,-0.234 -1.183,-0.545 -1.742,-0.936c-0.559,-0.391 -1.039,-0.874 -1.44,-1.449l1.562,-1.806c0.369,0.445 0.749,0.822 1.14,1.131c0.39,0.309 0.786,0.556 1.188,0.74c0.401,0.185 0.803,0.318 1.204,0.399c0.402,0.082 0.803,0.122 1.205,0.122c0.716,0 1.361,-0.103 1.936,-0.309c0.576,-0.206 1.067,-0.507 1.473,-0.903c0.407,-0.396 0.719,-0.887 0.936,-1.473c0.217,-0.586 0.326,-1.259 0.326,-2.019l0,-1.513c-0.586,0.673 -1.278,1.185 -2.075,1.538c-0.798,0.353 -1.723,0.529 -2.775,0.529c-1.075,0 -2.046,-0.228 -2.914,-0.684c-0.868,-0.455 -1.603,-1.085 -2.205,-1.888c-0.602,-0.803 -1.066,-1.749 -1.392,-2.84c-0.325,-1.09 -0.488,-2.265 -0.488,-3.524l0,-0.341Zm3.011,0.341c0,0.858 0.089,1.671 0.268,2.442c0.18,0.77 0.462,1.448 0.847,2.034c0.385,0.586 0.876,1.05 1.473,1.392c0.597,0.342 1.313,0.513 2.148,0.513c0.521,0 0.99,-0.063 1.408,-0.188c0.418,-0.124 0.792,-0.301 1.123,-0.529c0.331,-0.227 0.627,-0.499 0.887,-0.813c0.261,-0.315 0.489,-0.662 0.684,-1.042l0,-8.073c-0.195,-0.369 -0.423,-0.705 -0.684,-1.009c-0.26,-0.304 -0.559,-0.567 -0.895,-0.79c-0.336,-0.222 -0.711,-0.396 -1.123,-0.52c-0.412,-0.125 -0.868,-0.188 -1.367,-0.188c-0.847,0 -1.571,0.174 -2.173,0.521c-0.602,0.348 -1.096,0.817 -1.481,1.408c-0.385,0.592 -0.667,1.275 -0.847,2.051c-0.179,0.776 -0.268,1.592 -0.268,2.45l0,0.341Z" style="fill:#fff;fill-rule:nonzero;"/>
        <path d="M576.825,81.267l9,0l0,15.006l5.746,0l0,2.604l-14.746,0l0,-2.604l5.989,0l0,-12.386l-5.989,0l0,-2.62Zm5.598,-4.623c0,-0.499 0.15,-0.919 0.448,-1.261c0.298,-0.342 0.751,-0.513 1.359,-0.513c0.597,0 1.047,0.171 1.351,0.513c0.304,0.342 0.456,0.762 0.456,1.261c0,0.489 -0.152,0.895 -0.456,1.221c-0.304,0.325 -0.754,0.488 -1.351,0.488c-0.608,0 -1.061,-0.163 -1.359,-0.488c-0.298,-0.326 -0.448,-0.732 -0.448,-1.221Z" style="fill:#fff;fill-rule:nonzero;"/>
        <path d="M599.058,81.267l0.211,2.604c0.64,-0.912 1.427,-1.625 2.36,-2.14c0.933,-0.516 1.975,-0.779 3.125,-0.79c0.923,0 1.761,0.13 2.515,0.391c0.754,0.26 1.397,0.667 1.929,1.22c0.531,0.554 0.941,1.256 1.228,2.108c0.288,0.852 0.432,1.864 0.432,3.036l0,11.181l-3.011,0l0,-11.116c0,-0.781 -0.087,-1.443 -0.261,-1.986c-0.173,-0.542 -0.431,-0.982 -0.773,-1.318c-0.342,-0.337 -0.759,-0.581 -1.253,-0.733c-0.494,-0.152 -1.061,-0.228 -1.701,-0.228c-1.009,0 -1.896,0.253 -2.661,0.757c-0.765,0.505 -1.375,1.169 -1.831,1.994l0,12.63l-3.011,0l0,-17.61l2.702,0Z" style="fill:#fff;fill-rule:nonzero;"/>
        <path d="M620.33,100.912l-2.701,0l9.895,-25.733l2.686,0l-9.88,25.733Z" style="fill:#fff;fill-rule:nonzero;"/>
        <path d="M643.703,84.473l5.11,-9.294l3.549,0l-6.885,11.752l7.047,11.946l-3.515,0l-5.241,-9.472l-5.257,9.472l-3.565,0l7.064,-11.946l-6.885,-11.752l3.532,0l5.046,9.294Z" style="fill:#fff;fill-rule:nonzero;"/>
        <path d="M668.117,92.465l1.806,-17.286l2.849,0l-2.881,23.698l-3.076,0l-3.044,-17.854l-3.076,17.854l-3.092,0l-2.881,-23.698l2.864,0l1.807,17.286l3.043,-17.286l2.621,0l3.06,17.286Z" style="fill:#fff;fill-rule:nonzero;"/>
        <path d="M679.657,89.372l0,9.505l-3.012,0l0,-23.698l7.683,0c1.063,0.022 2.07,0.19 3.019,0.505c0.949,0.315 1.782,0.77 2.498,1.367c0.716,0.597 1.283,1.335 1.701,2.214c0.418,0.879 0.627,1.888 0.627,3.027c0,1.139 -0.209,2.146 -0.627,3.019c-0.418,0.874 -0.985,1.609 -1.701,2.206c-0.716,0.596 -1.549,1.052 -2.498,1.367c-0.949,0.315 -1.956,0.477 -3.019,0.488l-4.671,0Zm0,-2.474l4.671,0c0.694,-0.011 1.334,-0.122 1.92,-0.333c0.586,-0.212 1.096,-0.513 1.53,-0.904c0.434,-0.39 0.773,-0.865 1.018,-1.424c0.244,-0.559 0.366,-1.196 0.366,-1.912c0,-0.717 -0.122,-1.362 -0.366,-1.937c-0.245,-0.575 -0.581,-1.064 -1.01,-1.465c-0.428,-0.402 -0.938,-0.711 -1.53,-0.928c-0.591,-0.217 -1.234,-0.331 -1.928,-0.342l-4.671,0l0,9.245Z" style="fill:#fff;fill-rule:nonzero;"/>
        <path d="M704.168,75.684l-0.342,5.99l-2.246,0l0.017,-5.73l0,-2.067l2.571,0l0,1.807Z" style="fill:#fff;fill-rule:nonzero;"/>
        <path d="M724.009,98.177c0,0.51 -0.063,1.045 -0.187,1.604c-0.125,0.558 -0.31,1.112 -0.554,1.66c-0.244,0.548 -0.54,1.071 -0.887,1.57c-0.347,0.5 -0.749,0.944 -1.204,1.335l-1.872,-1.025c0.521,-0.76 0.89,-1.568 1.107,-2.425c0.217,-0.858 0.325,-1.747 0.325,-2.67l0,-2.913l3.272,0l0,2.864Z" style="fill:#fff;fill-rule:nonzero;"/>
        <path d="M769.468,104.834c-0.706,-0.021 -1.346,-0.141 -1.921,-0.358c-0.575,-0.217 -1.09,-0.51 -1.546,-0.879c-0.456,-0.369 -0.849,-0.797 -1.18,-1.285c-0.331,-0.489 -0.608,-1.012 -0.83,-1.571c-0.223,-0.559 -0.388,-1.134 -0.497,-1.725c-0.108,-0.592 -0.162,-1.175 -0.162,-1.75l0,-2.751c0,-1.562 -0.372,-2.696 -1.115,-3.401c-0.744,-0.706 -1.88,-1.064 -3.41,-1.075l0,-2.36c1.53,0 2.666,-0.35 3.41,-1.049c0.743,-0.7 1.115,-1.837 1.115,-3.41l0,-2.767c0,-0.575 0.049,-1.158 0.146,-1.75c0.098,-0.591 0.25,-1.166 0.456,-1.725c0.206,-0.559 0.469,-1.082 0.789,-1.571c0.32,-0.488 0.708,-0.917 1.164,-1.286c0.456,-0.368 0.979,-0.661 1.571,-0.878c0.591,-0.217 1.261,-0.337 2.01,-0.358l0.342,1.871c-0.782,0.022 -1.403,0.206 -1.864,0.554c-0.461,0.347 -0.808,0.789 -1.042,1.326c-0.233,0.537 -0.382,1.142 -0.447,1.815c-0.065,0.673 -0.098,1.34 -0.098,2.002l0,2.767c-0.011,1.302 -0.315,2.444 -0.911,3.426c-0.597,0.982 -1.525,1.728 -2.784,2.238c1.259,0.499 2.187,1.24 2.784,2.222c0.596,0.982 0.9,2.118 0.911,3.409l0,2.751c0,0.673 0.054,1.343 0.163,2.01c0.108,0.667 0.295,1.27 0.561,1.807c0.266,0.537 0.619,0.979 1.058,1.326c0.44,0.347 0.996,0.532 1.669,0.554l-0.342,1.871Z" style="fill:#fff;fill-rule:nonzero;"/>
        <path d="M778.81,102.963c0.662,-0.022 1.215,-0.207 1.66,-0.554c0.445,-0.347 0.801,-0.789 1.066,-1.326c0.266,-0.537 0.456,-1.14 0.57,-1.807c0.114,-0.667 0.171,-1.337 0.171,-2.01l0,-2.751c0,-1.291 0.298,-2.427 0.895,-3.409c0.597,-0.982 1.525,-1.723 2.783,-2.222c-1.258,-0.51 -2.186,-1.256 -2.783,-2.238c-0.597,-0.982 -0.895,-2.124 -0.895,-3.426l0,-2.767c0,-0.662 -0.035,-1.329 -0.106,-2.002c-0.07,-0.673 -0.222,-1.278 -0.456,-1.815c-0.233,-0.537 -0.577,-0.979 -1.033,-1.326c-0.456,-0.348 -1.074,-0.532 -1.856,-0.554l0.326,-1.871c0.749,0.021 1.419,0.141 2.01,0.358c0.591,0.217 1.115,0.51 1.571,0.878c0.455,0.369 0.843,0.798 1.163,1.286c0.321,0.489 0.584,1.012 0.79,1.571c0.206,0.559 0.358,1.134 0.456,1.725c0.097,0.592 0.146,1.175 0.146,1.75l0,2.767c0,1.573 0.374,2.71 1.123,3.41c0.749,0.699 1.883,1.049 3.402,1.049l0,2.36c-1.519,0.011 -2.653,0.369 -3.402,1.075c-0.749,0.705 -1.123,1.839 -1.123,3.401l0,2.751c0,0.868 -0.119,1.744 -0.358,2.629c-0.239,0.884 -0.61,1.69 -1.115,2.417c-0.504,0.727 -1.142,1.323 -1.912,1.79c-0.771,0.467 -1.688,0.711 -2.751,0.732l-0.342,-1.871Z" style="fill:#fff;fill-rule:nonzero;"/>
        <path d="M827.378,89.421c0,1.552 -0.122,3.011 -0.366,4.378c-0.244,1.367 -0.573,2.634 -0.985,3.801c-0.412,1.166 -0.887,2.229 -1.424,3.19c-0.537,0.96 -1.102,1.817 -1.693,2.571c-0.591,0.755 -1.188,1.395 -1.79,1.921c-0.602,0.526 -1.175,0.941 -1.717,1.245l-0.635,-1.839c0.673,-0.499 1.343,-1.196 2.01,-2.092c0.667,-0.895 1.264,-1.977 1.79,-3.247c0.527,-1.269 0.955,-2.729 1.286,-4.378c0.331,-1.649 0.497,-3.488 0.497,-5.517l0,-0.228c0,-2.029 -0.174,-3.871 -0.521,-5.526c-0.347,-1.655 -0.795,-3.12 -1.343,-4.395c-0.548,-1.275 -1.15,-2.357 -1.807,-3.247c-0.656,-0.889 -1.294,-1.584 -1.912,-2.083l0.635,-1.839c0.542,0.304 1.115,0.721 1.717,1.253c0.602,0.532 1.199,1.172 1.79,1.921c0.591,0.748 1.156,1.606 1.693,2.571c0.537,0.966 1.012,2.032 1.424,3.198c0.412,1.167 0.741,2.434 0.985,3.801c0.244,1.367 0.366,2.827 0.366,4.378l0,0.163Z" style="fill:#fff;fill-rule:nonzero;"/>
        <path d="M842.303,82.666c0,-0.325 0.052,-0.629 0.155,-0.911c0.103,-0.282 0.252,-0.529 0.447,-0.741c0.196,-0.211 0.44,-0.377 0.733,-0.496c0.293,-0.119 0.634,-0.179 1.025,-0.179c0.391,0 0.735,0.06 1.034,0.179c0.298,0.119 0.548,0.285 0.748,0.496c0.201,0.212 0.353,0.459 0.456,0.741c0.103,0.282 0.155,0.586 0.155,0.911c0,0.315 -0.052,0.611 -0.155,0.887c-0.103,0.277 -0.255,0.519 -0.456,0.725c-0.2,0.206 -0.45,0.366 -0.748,0.48c-0.299,0.114 -0.643,0.171 -1.034,0.171c-0.391,0 -0.732,-0.057 -1.025,-0.171c-0.293,-0.114 -0.537,-0.274 -0.733,-0.48c-0.195,-0.206 -0.344,-0.448 -0.447,-0.725c-0.103,-0.276 -0.155,-0.572 -0.155,-0.887Zm3.874,15.511c0,0.51 -0.063,1.045 -0.187,1.604c-0.125,0.558 -0.31,1.112 -0.554,1.66c-0.244,0.548 -0.54,1.071 -0.887,1.57c-0.347,0.5 -0.749,0.944 -1.204,1.335l-1.872,-1.025c0.521,-0.76 0.89,-1.568 1.107,-2.425c0.217,-0.858 0.325,-1.747 0.325,-2.67l0,-2.913l3.272,0l0,2.864Z" style="fill:#fff;fill-rule:nonzero;"/>
    </g>
</svg>
