<?xml version="1.0" encoding="UTF-8" standalone="no"?>
<!DOCTYPE svg PUBLIC "-//W3C//DTD SVG 1.1//EN" "http://www.w3.org/Graphics/SVG/1.1/DTD/svg11.dtd">
<svg width="100%" height="100%" viewBox="0 0 887 178" version="1.1" xmlns="http://www.w3.org/2000/svg" xmlns:xlink="http://www.w3.org/1999/xlink" xml:space="preserve" xmlns:serif="http://www.serif.com/" style="fill-rule:evenodd;clip-rule:evenodd;stroke-linejoin:round;stroke-miterlimit:1.41421;">
    <rect id="Video_Block" x="0.833" y="0" width="885.827" height="177.165" style="fill:none;"/>
    <g>
        <path d="M299.337,65.068l7.453,15.01l60.301,0l0,34.018l-67.754,0l0,-49.028m76.223,-10.503l-16.938,0l8.469,17.009l-12.704,0l-8.469,-17.009l-8.469,0l8.469,17.009l-12.704,0l-8.469,-17.009l-8.469,0l8.469,17.009l-12.704,0l-8.469,-17.009l-4.235,0c-4.658,0 -8.426,3.827 -8.426,8.504l-0.043,51.027c0,4.677 3.811,8.504 8.469,8.504l67.754,0c4.658,0 8.469,-3.827 8.469,-8.504l0,-59.531Z" style="fill:#32373c;fill-rule:nonzero;"/>
        <path d="M455.025,112.016l16.933,-47.6l-6.6,0l-13.733,41.267l-0.134,0l-13.6,-41.267l-6.8,0l16.734,47.6l7.2,0Z" style="fill:#32373c;fill-rule:nonzero;"/>
        <path d="M480.891,71.349l0,-6.933l-5.666,0l0,6.933l5.666,0Zm-5.666,6.2l0,34.467l5.666,0l0,-34.467l-5.666,0Z" style="fill:#32373c;fill-rule:nonzero;"/>
        <path d="M493.825,95.083c0,-1.689 0.177,-3.334 0.533,-4.934c0.355,-1.6 0.933,-3.022 1.733,-4.266c0.8,-1.245 1.867,-2.245 3.2,-3c1.334,-0.756 2.956,-1.134 4.867,-1.134c1.955,0 3.622,0.367 5,1.1c1.378,0.734 2.5,1.7 3.367,2.9c0.866,1.2 1.5,2.589 1.9,4.167c0.4,1.578 0.6,3.211 0.6,4.9c0,1.6 -0.189,3.178 -0.567,4.733c-0.378,1.556 -0.989,2.945 -1.833,4.167c-0.845,1.222 -1.934,2.211 -3.267,2.967c-1.333,0.755 -2.956,1.133 -4.867,1.133c-1.822,0 -3.411,-0.356 -4.766,-1.067c-1.356,-0.711 -2.467,-1.666 -3.334,-2.866c-0.866,-1.2 -1.511,-2.567 -1.933,-4.1c-0.422,-1.534 -0.633,-3.1 -0.633,-4.7Zm26.666,16.933l0,-47.6l-5.666,0l0,17.733l-0.134,0c-0.622,-1.022 -1.389,-1.877 -2.3,-2.566c-0.911,-0.689 -1.878,-1.245 -2.9,-1.667c-1.022,-0.422 -2.044,-0.722 -3.066,-0.9c-1.023,-0.178 -1.978,-0.267 -2.867,-0.267c-2.622,0 -4.922,0.478 -6.9,1.434c-1.978,0.955 -3.622,2.244 -4.933,3.866c-1.312,1.623 -2.289,3.523 -2.934,5.7c-0.644,2.178 -0.966,4.489 -0.966,6.934c0,2.444 0.333,4.755 1,6.933c0.666,2.178 1.655,4.089 2.966,5.733c1.311,1.645 2.956,2.956 4.934,3.934c1.977,0.977 4.3,1.466 6.966,1.466c2.4,0 4.6,-0.422 6.6,-1.266c2,-0.845 3.467,-2.223 4.4,-4.134l0.134,0l0,4.667l5.666,0Z" style="fill:#32373c;fill-rule:nonzero;"/>
        <path d="M553.158,91.483l-19.8,0c0.089,-1.334 0.378,-2.589 0.867,-3.767c0.488,-1.178 1.155,-2.211 2,-3.1c0.844,-0.889 1.855,-1.589 3.033,-2.1c1.178,-0.511 2.5,-0.767 3.967,-0.767c1.422,0 2.722,0.256 3.9,0.767c1.177,0.511 2.2,1.2 3.066,2.067c0.867,0.866 1.556,1.9 2.067,3.1c0.511,1.2 0.811,2.466 0.9,3.8Zm5.467,9.6l-5.6,0c-0.489,2.266 -1.5,3.955 -3.034,5.066c-1.533,1.111 -3.5,1.667 -5.9,1.667c-1.866,0 -3.489,-0.311 -4.866,-0.933c-1.378,-0.623 -2.512,-1.456 -3.4,-2.5c-0.889,-1.045 -1.534,-2.245 -1.934,-3.6c-0.4,-1.356 -0.578,-2.789 -0.533,-4.3l25.8,0c0.089,-2.089 -0.1,-4.289 -0.567,-6.6c-0.466,-2.311 -1.311,-4.445 -2.533,-6.4c-1.222,-1.956 -2.845,-3.567 -4.867,-4.834c-2.022,-1.266 -4.566,-1.9 -7.633,-1.9c-2.356,0 -4.522,0.445 -6.5,1.334c-1.978,0.889 -3.689,2.133 -5.133,3.733c-1.445,1.6 -2.567,3.489 -3.367,5.667c-0.8,2.177 -1.2,4.577 -1.2,7.2c0.089,2.622 0.478,5.044 1.167,7.266c0.688,2.223 1.722,4.134 3.1,5.734c1.377,1.6 3.077,2.844 5.1,3.733c2.022,0.889 4.411,1.333 7.166,1.333c3.911,0 7.156,-0.977 9.734,-2.933c2.577,-1.956 4.244,-4.867 5,-8.733Z" style="fill:#32373c;fill-rule:nonzero;"/>
        <path d="M569.158,94.816c0,-2.089 0.278,-3.944 0.833,-5.567c0.556,-1.622 1.322,-2.989 2.3,-4.1c0.978,-1.111 2.122,-1.955 3.434,-2.533c1.311,-0.578 2.7,-0.867 4.166,-0.867c1.467,0 2.856,0.289 4.167,0.867c1.311,0.578 2.455,1.422 3.433,2.533c0.978,1.111 1.745,2.478 2.3,4.1c0.556,1.623 0.834,3.478 0.834,5.567c0,2.089 -0.278,3.944 -0.834,5.567c-0.555,1.622 -1.322,2.977 -2.3,4.066c-0.978,1.089 -2.122,1.923 -3.433,2.5c-1.311,0.578 -2.7,0.867 -4.167,0.867c-1.466,0 -2.855,-0.289 -4.166,-0.867c-1.312,-0.577 -2.456,-1.411 -3.434,-2.5c-0.978,-1.089 -1.744,-2.444 -2.3,-4.066c-0.555,-1.623 -0.833,-3.478 -0.833,-5.567Zm-6,0c0,2.533 0.355,4.889 1.067,7.067c0.711,2.177 1.777,4.077 3.2,5.7c1.422,1.622 3.177,2.889 5.266,3.8c2.089,0.911 4.489,1.366 7.2,1.366c2.756,0 5.167,-0.455 7.234,-1.366c2.066,-0.911 3.811,-2.178 5.233,-3.8c1.422,-1.623 2.489,-3.523 3.2,-5.7c0.711,-2.178 1.067,-4.534 1.067,-7.067c0,-2.533 -0.356,-4.9 -1.067,-7.1c-0.711,-2.2 -1.778,-4.111 -3.2,-5.733c-1.422,-1.623 -3.167,-2.9 -5.233,-3.834c-2.067,-0.933 -4.478,-1.4 -7.234,-1.4c-2.711,0 -5.111,0.467 -7.2,1.4c-2.089,0.934 -3.844,2.211 -5.266,3.834c-1.423,1.622 -2.489,3.533 -3.2,5.733c-0.712,2.2 -1.067,4.567 -1.067,7.1Z" style="fill:#32373c;fill-rule:nonzero;"/>
    </g>
</svg>
