<?xml version="1.0" encoding="UTF-8" standalone="no"?>
<!DOCTYPE svg PUBLIC "-//W3C//DTD SVG 1.1//EN" "http://www.w3.org/Graphics/SVG/1.1/DTD/svg11.dtd">
<svg width="100%" height="100%" viewBox="0 0 887 178" version="1.1" xmlns="http://www.w3.org/2000/svg" xmlns:xlink="http://www.w3.org/1999/xlink" xml:space="preserve" xmlns:serif="http://www.serif.com/" style="fill-rule:evenodd;clip-rule:evenodd;stroke-linejoin:round;stroke-miterlimit:1.41421;">
    <rect id="XWP_Blue" x="0.833" y="0" width="885.827" height="177.165" style="fill:none;"/>
    <clipPath id="_clip1">
        <rect x="0.833" y="0" width="885.827" height="177.165"/>
    </clipPath>
    <g clip-path="url(#_clip1)">
        <rect x="0.833" y="0" width="885.827" height="177.165" style="fill:#2351c4;"/>
        <path d="M340.858,83.054c-0.609,0 -1.097,-0.244 -1.462,-0.61l-33.144,-33.021c-0.853,-0.853 -0.853,-2.194 0,-2.925c0.853,-0.853 2.072,-0.853 2.925,0l33.143,33.022c0.731,0.853 0.731,2.071 0,2.924c-0.487,0.366 -0.975,0.61 -1.462,0.61Zm-33.144,48.253c-0.487,0 -1.096,-0.244 -1.462,-0.609c-0.853,-0.853 -0.853,-2.194 0,-2.925l81.153,-81.153c0.853,-0.853 2.194,-0.853 2.925,0c0.853,0.853 0.853,2.072 0,2.925l-81.153,81.153c-0.366,0.365 -0.975,0.609 -1.463,0.609Zm81.397,0c-0.487,0 -1.096,-0.122 -1.462,-0.609l-33.265,-33.144c-0.732,-0.853 -0.732,-2.071 0,-2.924c0.853,-0.853 2.193,-0.853 2.924,0l33.265,33.143c0.853,0.853 0.853,2.193 0,2.925c-0.365,0.487 -0.974,0.609 -1.462,0.609Z" style="fill:#fff;fill-rule:nonzero;stroke:#fff;stroke-width:2.5px;"/>
        <path d="M411.41,114.857c-1.218,0 -2.071,-0.853 -2.071,-1.95l0,-64.825c0,-1.096 0.853,-2.071 2.071,-2.071c1.097,0 1.95,0.975 1.95,2.071l0,64.825c0,1.097 -0.853,1.95 -1.95,1.95Zm80.422,0c-1.218,0 -2.071,-0.853 -2.071,-1.95l0,-64.825c0,-1.096 0.853,-2.071 2.071,-2.071c1.097,0 1.95,0.975 1.95,2.071l0,64.825c0,1.097 -0.853,1.95 -1.95,1.95Zm-0.731,16.45c-0.487,0 -0.975,-0.244 -1.34,-0.609l-38.506,-38.505l-38.139,38.139c-0.853,0.853 -2.071,0.853 -2.924,0c-0.732,-0.731 -0.732,-2.071 0,-2.803l39.601,-39.601c0.853,-0.731 2.072,-0.731 2.925,0l39.845,39.967c0.853,0.731 0.853,2.071 0,2.803c-0.365,0.365 -0.853,0.609 -1.462,0.609Z" style="fill:#fff;fill-rule:nonzero;stroke:#fff;stroke-width:2.5px;"/>
        <path d="M553.001,100.844c0.853,0 13.282,-0.122 21.568,-8.408c4.874,-4.874 7.311,-10.845 7.311,-18.887c0,-8.407 -2.559,-14.378 -7.555,-19.374c-8.529,-8.286 -20.958,-8.164 -21.445,-8.164l-32.657,0c-1.096,0 -2.071,0.975 -2.071,2.071l0,37.043c0,1.219 0.975,2.072 2.071,2.072c1.219,0 2.194,-0.853 2.194,-2.072l0,-34.849l30.584,0c0.122,0 11.089,-0.122 18.4,6.945c4.143,4.143 6.214,9.017 6.214,16.328c0,6.824 -1.949,11.82 -5.97,15.841c-7.189,7.189 -18.522,7.189 -18.765,7.189l-16.938,0c-1.096,0 -2.071,0.975 -2.071,2.194c0,1.096 0.975,2.071 2.071,2.071l17.059,0Zm-32.778,-3.899c-1.096,0 -2.071,0.975 -2.071,2.071l0,30.219c0,1.097 0.975,2.072 2.071,2.072c1.219,0 2.194,-0.975 2.194,-2.072l0,-30.219c0,-1.096 -0.975,-2.071 -2.194,-2.071Z" style="fill:#fff;fill-rule:nonzero;stroke:#fff;stroke-width:2.5px;"/>
    </g>
</svg>
